%TF.GenerationSoftware,KiCad,Pcbnew,5.1.8*%
%TF.CreationDate,2020-11-13T13:51:11+03:00*%
%TF.ProjectId,leech,6c656563-682e-46b6-9963-61645f706362,rev?*%
%TF.SameCoordinates,Original*%
%TF.FileFunction,Soldermask,Bot*%
%TF.FilePolarity,Negative*%
%FSLAX46Y46*%
G04 Gerber Fmt 4.6, Leading zero omitted, Abs format (unit mm)*
G04 Created by KiCad (PCBNEW 5.1.8) date 2020-11-13 13:51:11*
%MOMM*%
%LPD*%
G01*
G04 APERTURE LIST*
%ADD10R,0.800000X0.800000*%
%ADD11C,1.624000*%
%ADD12C,1.100000*%
G04 APERTURE END LIST*
D10*
%TO.C,U1*%
X35120000Y-44890000D03*
X35120000Y-46290000D03*
X35120000Y-47690000D03*
X35120000Y-49090000D03*
X33720000Y-44890000D03*
X33720000Y-46290000D03*
X33720000Y-47690000D03*
X33720000Y-49090000D03*
X32320000Y-44890000D03*
X32320000Y-46290000D03*
X32320000Y-47690000D03*
X32320000Y-49090000D03*
X30920000Y-44890000D03*
X30920000Y-46290000D03*
X30920000Y-47690000D03*
X30920000Y-49090000D03*
G36*
G01*
X30095000Y-50740000D02*
X30095000Y-50040000D01*
G75*
G02*
X30145000Y-49990000I50000J0D01*
G01*
X30395000Y-49990000D01*
G75*
G02*
X30445000Y-50040000I0J-50000D01*
G01*
X30445000Y-50740000D01*
G75*
G02*
X30395000Y-50790000I-50000J0D01*
G01*
X30145000Y-50790000D01*
G75*
G02*
X30095000Y-50740000I0J50000D01*
G01*
G37*
G36*
G01*
X30595000Y-50740000D02*
X30595000Y-50040000D01*
G75*
G02*
X30645000Y-49990000I50000J0D01*
G01*
X30895000Y-49990000D01*
G75*
G02*
X30945000Y-50040000I0J-50000D01*
G01*
X30945000Y-50740000D01*
G75*
G02*
X30895000Y-50790000I-50000J0D01*
G01*
X30645000Y-50790000D01*
G75*
G02*
X30595000Y-50740000I0J50000D01*
G01*
G37*
G36*
G01*
X31095000Y-50740000D02*
X31095000Y-50040000D01*
G75*
G02*
X31145000Y-49990000I50000J0D01*
G01*
X31395000Y-49990000D01*
G75*
G02*
X31445000Y-50040000I0J-50000D01*
G01*
X31445000Y-50740000D01*
G75*
G02*
X31395000Y-50790000I-50000J0D01*
G01*
X31145000Y-50790000D01*
G75*
G02*
X31095000Y-50740000I0J50000D01*
G01*
G37*
G36*
G01*
X31595000Y-50740000D02*
X31595000Y-50040000D01*
G75*
G02*
X31645000Y-49990000I50000J0D01*
G01*
X31895000Y-49990000D01*
G75*
G02*
X31945000Y-50040000I0J-50000D01*
G01*
X31945000Y-50740000D01*
G75*
G02*
X31895000Y-50790000I-50000J0D01*
G01*
X31645000Y-50790000D01*
G75*
G02*
X31595000Y-50740000I0J50000D01*
G01*
G37*
G36*
G01*
X32095000Y-50740000D02*
X32095000Y-50040000D01*
G75*
G02*
X32145000Y-49990000I50000J0D01*
G01*
X32395000Y-49990000D01*
G75*
G02*
X32445000Y-50040000I0J-50000D01*
G01*
X32445000Y-50740000D01*
G75*
G02*
X32395000Y-50790000I-50000J0D01*
G01*
X32145000Y-50790000D01*
G75*
G02*
X32095000Y-50740000I0J50000D01*
G01*
G37*
G36*
G01*
X32595000Y-50740000D02*
X32595000Y-50040000D01*
G75*
G02*
X32645000Y-49990000I50000J0D01*
G01*
X32895000Y-49990000D01*
G75*
G02*
X32945000Y-50040000I0J-50000D01*
G01*
X32945000Y-50740000D01*
G75*
G02*
X32895000Y-50790000I-50000J0D01*
G01*
X32645000Y-50790000D01*
G75*
G02*
X32595000Y-50740000I0J50000D01*
G01*
G37*
G36*
G01*
X33095000Y-50740000D02*
X33095000Y-50040000D01*
G75*
G02*
X33145000Y-49990000I50000J0D01*
G01*
X33395000Y-49990000D01*
G75*
G02*
X33445000Y-50040000I0J-50000D01*
G01*
X33445000Y-50740000D01*
G75*
G02*
X33395000Y-50790000I-50000J0D01*
G01*
X33145000Y-50790000D01*
G75*
G02*
X33095000Y-50740000I0J50000D01*
G01*
G37*
G36*
G01*
X33595000Y-50740000D02*
X33595000Y-50040000D01*
G75*
G02*
X33645000Y-49990000I50000J0D01*
G01*
X33895000Y-49990000D01*
G75*
G02*
X33945000Y-50040000I0J-50000D01*
G01*
X33945000Y-50740000D01*
G75*
G02*
X33895000Y-50790000I-50000J0D01*
G01*
X33645000Y-50790000D01*
G75*
G02*
X33595000Y-50740000I0J50000D01*
G01*
G37*
G36*
G01*
X34095000Y-50740000D02*
X34095000Y-50040000D01*
G75*
G02*
X34145000Y-49990000I50000J0D01*
G01*
X34395000Y-49990000D01*
G75*
G02*
X34445000Y-50040000I0J-50000D01*
G01*
X34445000Y-50740000D01*
G75*
G02*
X34395000Y-50790000I-50000J0D01*
G01*
X34145000Y-50790000D01*
G75*
G02*
X34095000Y-50740000I0J50000D01*
G01*
G37*
G36*
G01*
X34595000Y-50740000D02*
X34595000Y-50040000D01*
G75*
G02*
X34645000Y-49990000I50000J0D01*
G01*
X34895000Y-49990000D01*
G75*
G02*
X34945000Y-50040000I0J-50000D01*
G01*
X34945000Y-50740000D01*
G75*
G02*
X34895000Y-50790000I-50000J0D01*
G01*
X34645000Y-50790000D01*
G75*
G02*
X34595000Y-50740000I0J50000D01*
G01*
G37*
G36*
G01*
X35095000Y-50740000D02*
X35095000Y-50040000D01*
G75*
G02*
X35145000Y-49990000I50000J0D01*
G01*
X35395000Y-49990000D01*
G75*
G02*
X35445000Y-50040000I0J-50000D01*
G01*
X35445000Y-50740000D01*
G75*
G02*
X35395000Y-50790000I-50000J0D01*
G01*
X35145000Y-50790000D01*
G75*
G02*
X35095000Y-50740000I0J50000D01*
G01*
G37*
G36*
G01*
X35595000Y-50740000D02*
X35595000Y-50040000D01*
G75*
G02*
X35645000Y-49990000I50000J0D01*
G01*
X35895000Y-49990000D01*
G75*
G02*
X35945000Y-50040000I0J-50000D01*
G01*
X35945000Y-50740000D01*
G75*
G02*
X35895000Y-50790000I-50000J0D01*
G01*
X35645000Y-50790000D01*
G75*
G02*
X35595000Y-50740000I0J50000D01*
G01*
G37*
G36*
G01*
X36020000Y-49865000D02*
X36020000Y-49615000D01*
G75*
G02*
X36070000Y-49565000I50000J0D01*
G01*
X36770000Y-49565000D01*
G75*
G02*
X36820000Y-49615000I0J-50000D01*
G01*
X36820000Y-49865000D01*
G75*
G02*
X36770000Y-49915000I-50000J0D01*
G01*
X36070000Y-49915000D01*
G75*
G02*
X36020000Y-49865000I0J50000D01*
G01*
G37*
G36*
G01*
X36020000Y-49365000D02*
X36020000Y-49115000D01*
G75*
G02*
X36070000Y-49065000I50000J0D01*
G01*
X36770000Y-49065000D01*
G75*
G02*
X36820000Y-49115000I0J-50000D01*
G01*
X36820000Y-49365000D01*
G75*
G02*
X36770000Y-49415000I-50000J0D01*
G01*
X36070000Y-49415000D01*
G75*
G02*
X36020000Y-49365000I0J50000D01*
G01*
G37*
G36*
G01*
X36020000Y-48865000D02*
X36020000Y-48615000D01*
G75*
G02*
X36070000Y-48565000I50000J0D01*
G01*
X36770000Y-48565000D01*
G75*
G02*
X36820000Y-48615000I0J-50000D01*
G01*
X36820000Y-48865000D01*
G75*
G02*
X36770000Y-48915000I-50000J0D01*
G01*
X36070000Y-48915000D01*
G75*
G02*
X36020000Y-48865000I0J50000D01*
G01*
G37*
G36*
G01*
X36020000Y-48365000D02*
X36020000Y-48115000D01*
G75*
G02*
X36070000Y-48065000I50000J0D01*
G01*
X36770000Y-48065000D01*
G75*
G02*
X36820000Y-48115000I0J-50000D01*
G01*
X36820000Y-48365000D01*
G75*
G02*
X36770000Y-48415000I-50000J0D01*
G01*
X36070000Y-48415000D01*
G75*
G02*
X36020000Y-48365000I0J50000D01*
G01*
G37*
G36*
G01*
X36020000Y-47865000D02*
X36020000Y-47615000D01*
G75*
G02*
X36070000Y-47565000I50000J0D01*
G01*
X36770000Y-47565000D01*
G75*
G02*
X36820000Y-47615000I0J-50000D01*
G01*
X36820000Y-47865000D01*
G75*
G02*
X36770000Y-47915000I-50000J0D01*
G01*
X36070000Y-47915000D01*
G75*
G02*
X36020000Y-47865000I0J50000D01*
G01*
G37*
G36*
G01*
X36020000Y-47365000D02*
X36020000Y-47115000D01*
G75*
G02*
X36070000Y-47065000I50000J0D01*
G01*
X36770000Y-47065000D01*
G75*
G02*
X36820000Y-47115000I0J-50000D01*
G01*
X36820000Y-47365000D01*
G75*
G02*
X36770000Y-47415000I-50000J0D01*
G01*
X36070000Y-47415000D01*
G75*
G02*
X36020000Y-47365000I0J50000D01*
G01*
G37*
G36*
G01*
X36020000Y-46865000D02*
X36020000Y-46615000D01*
G75*
G02*
X36070000Y-46565000I50000J0D01*
G01*
X36770000Y-46565000D01*
G75*
G02*
X36820000Y-46615000I0J-50000D01*
G01*
X36820000Y-46865000D01*
G75*
G02*
X36770000Y-46915000I-50000J0D01*
G01*
X36070000Y-46915000D01*
G75*
G02*
X36020000Y-46865000I0J50000D01*
G01*
G37*
G36*
G01*
X36020000Y-46365000D02*
X36020000Y-46115000D01*
G75*
G02*
X36070000Y-46065000I50000J0D01*
G01*
X36770000Y-46065000D01*
G75*
G02*
X36820000Y-46115000I0J-50000D01*
G01*
X36820000Y-46365000D01*
G75*
G02*
X36770000Y-46415000I-50000J0D01*
G01*
X36070000Y-46415000D01*
G75*
G02*
X36020000Y-46365000I0J50000D01*
G01*
G37*
G36*
G01*
X36020000Y-45865000D02*
X36020000Y-45615000D01*
G75*
G02*
X36070000Y-45565000I50000J0D01*
G01*
X36770000Y-45565000D01*
G75*
G02*
X36820000Y-45615000I0J-50000D01*
G01*
X36820000Y-45865000D01*
G75*
G02*
X36770000Y-45915000I-50000J0D01*
G01*
X36070000Y-45915000D01*
G75*
G02*
X36020000Y-45865000I0J50000D01*
G01*
G37*
G36*
G01*
X36020000Y-45365000D02*
X36020000Y-45115000D01*
G75*
G02*
X36070000Y-45065000I50000J0D01*
G01*
X36770000Y-45065000D01*
G75*
G02*
X36820000Y-45115000I0J-50000D01*
G01*
X36820000Y-45365000D01*
G75*
G02*
X36770000Y-45415000I-50000J0D01*
G01*
X36070000Y-45415000D01*
G75*
G02*
X36020000Y-45365000I0J50000D01*
G01*
G37*
G36*
G01*
X36020000Y-44865000D02*
X36020000Y-44615000D01*
G75*
G02*
X36070000Y-44565000I50000J0D01*
G01*
X36770000Y-44565000D01*
G75*
G02*
X36820000Y-44615000I0J-50000D01*
G01*
X36820000Y-44865000D01*
G75*
G02*
X36770000Y-44915000I-50000J0D01*
G01*
X36070000Y-44915000D01*
G75*
G02*
X36020000Y-44865000I0J50000D01*
G01*
G37*
G36*
G01*
X36020000Y-44365000D02*
X36020000Y-44115000D01*
G75*
G02*
X36070000Y-44065000I50000J0D01*
G01*
X36770000Y-44065000D01*
G75*
G02*
X36820000Y-44115000I0J-50000D01*
G01*
X36820000Y-44365000D01*
G75*
G02*
X36770000Y-44415000I-50000J0D01*
G01*
X36070000Y-44415000D01*
G75*
G02*
X36020000Y-44365000I0J50000D01*
G01*
G37*
G36*
G01*
X35595000Y-43940000D02*
X35595000Y-43240000D01*
G75*
G02*
X35645000Y-43190000I50000J0D01*
G01*
X35895000Y-43190000D01*
G75*
G02*
X35945000Y-43240000I0J-50000D01*
G01*
X35945000Y-43940000D01*
G75*
G02*
X35895000Y-43990000I-50000J0D01*
G01*
X35645000Y-43990000D01*
G75*
G02*
X35595000Y-43940000I0J50000D01*
G01*
G37*
G36*
G01*
X35095000Y-43940000D02*
X35095000Y-43240000D01*
G75*
G02*
X35145000Y-43190000I50000J0D01*
G01*
X35395000Y-43190000D01*
G75*
G02*
X35445000Y-43240000I0J-50000D01*
G01*
X35445000Y-43940000D01*
G75*
G02*
X35395000Y-43990000I-50000J0D01*
G01*
X35145000Y-43990000D01*
G75*
G02*
X35095000Y-43940000I0J50000D01*
G01*
G37*
G36*
G01*
X34595000Y-43940000D02*
X34595000Y-43240000D01*
G75*
G02*
X34645000Y-43190000I50000J0D01*
G01*
X34895000Y-43190000D01*
G75*
G02*
X34945000Y-43240000I0J-50000D01*
G01*
X34945000Y-43940000D01*
G75*
G02*
X34895000Y-43990000I-50000J0D01*
G01*
X34645000Y-43990000D01*
G75*
G02*
X34595000Y-43940000I0J50000D01*
G01*
G37*
G36*
G01*
X34095000Y-43940000D02*
X34095000Y-43240000D01*
G75*
G02*
X34145000Y-43190000I50000J0D01*
G01*
X34395000Y-43190000D01*
G75*
G02*
X34445000Y-43240000I0J-50000D01*
G01*
X34445000Y-43940000D01*
G75*
G02*
X34395000Y-43990000I-50000J0D01*
G01*
X34145000Y-43990000D01*
G75*
G02*
X34095000Y-43940000I0J50000D01*
G01*
G37*
G36*
G01*
X33595000Y-43940000D02*
X33595000Y-43240000D01*
G75*
G02*
X33645000Y-43190000I50000J0D01*
G01*
X33895000Y-43190000D01*
G75*
G02*
X33945000Y-43240000I0J-50000D01*
G01*
X33945000Y-43940000D01*
G75*
G02*
X33895000Y-43990000I-50000J0D01*
G01*
X33645000Y-43990000D01*
G75*
G02*
X33595000Y-43940000I0J50000D01*
G01*
G37*
G36*
G01*
X33095000Y-43940000D02*
X33095000Y-43240000D01*
G75*
G02*
X33145000Y-43190000I50000J0D01*
G01*
X33395000Y-43190000D01*
G75*
G02*
X33445000Y-43240000I0J-50000D01*
G01*
X33445000Y-43940000D01*
G75*
G02*
X33395000Y-43990000I-50000J0D01*
G01*
X33145000Y-43990000D01*
G75*
G02*
X33095000Y-43940000I0J50000D01*
G01*
G37*
G36*
G01*
X32595000Y-43940000D02*
X32595000Y-43240000D01*
G75*
G02*
X32645000Y-43190000I50000J0D01*
G01*
X32895000Y-43190000D01*
G75*
G02*
X32945000Y-43240000I0J-50000D01*
G01*
X32945000Y-43940000D01*
G75*
G02*
X32895000Y-43990000I-50000J0D01*
G01*
X32645000Y-43990000D01*
G75*
G02*
X32595000Y-43940000I0J50000D01*
G01*
G37*
G36*
G01*
X32095000Y-43940000D02*
X32095000Y-43240000D01*
G75*
G02*
X32145000Y-43190000I50000J0D01*
G01*
X32395000Y-43190000D01*
G75*
G02*
X32445000Y-43240000I0J-50000D01*
G01*
X32445000Y-43940000D01*
G75*
G02*
X32395000Y-43990000I-50000J0D01*
G01*
X32145000Y-43990000D01*
G75*
G02*
X32095000Y-43940000I0J50000D01*
G01*
G37*
G36*
G01*
X31595000Y-43940000D02*
X31595000Y-43240000D01*
G75*
G02*
X31645000Y-43190000I50000J0D01*
G01*
X31895000Y-43190000D01*
G75*
G02*
X31945000Y-43240000I0J-50000D01*
G01*
X31945000Y-43940000D01*
G75*
G02*
X31895000Y-43990000I-50000J0D01*
G01*
X31645000Y-43990000D01*
G75*
G02*
X31595000Y-43940000I0J50000D01*
G01*
G37*
G36*
G01*
X31095000Y-43940000D02*
X31095000Y-43240000D01*
G75*
G02*
X31145000Y-43190000I50000J0D01*
G01*
X31395000Y-43190000D01*
G75*
G02*
X31445000Y-43240000I0J-50000D01*
G01*
X31445000Y-43940000D01*
G75*
G02*
X31395000Y-43990000I-50000J0D01*
G01*
X31145000Y-43990000D01*
G75*
G02*
X31095000Y-43940000I0J50000D01*
G01*
G37*
G36*
G01*
X30595000Y-43940000D02*
X30595000Y-43240000D01*
G75*
G02*
X30645000Y-43190000I50000J0D01*
G01*
X30895000Y-43190000D01*
G75*
G02*
X30945000Y-43240000I0J-50000D01*
G01*
X30945000Y-43940000D01*
G75*
G02*
X30895000Y-43990000I-50000J0D01*
G01*
X30645000Y-43990000D01*
G75*
G02*
X30595000Y-43940000I0J50000D01*
G01*
G37*
G36*
G01*
X30095000Y-43940000D02*
X30095000Y-43240000D01*
G75*
G02*
X30145000Y-43190000I50000J0D01*
G01*
X30395000Y-43190000D01*
G75*
G02*
X30445000Y-43240000I0J-50000D01*
G01*
X30445000Y-43940000D01*
G75*
G02*
X30395000Y-43990000I-50000J0D01*
G01*
X30145000Y-43990000D01*
G75*
G02*
X30095000Y-43940000I0J50000D01*
G01*
G37*
G36*
G01*
X29220000Y-44365000D02*
X29220000Y-44115000D01*
G75*
G02*
X29270000Y-44065000I50000J0D01*
G01*
X29970000Y-44065000D01*
G75*
G02*
X30020000Y-44115000I0J-50000D01*
G01*
X30020000Y-44365000D01*
G75*
G02*
X29970000Y-44415000I-50000J0D01*
G01*
X29270000Y-44415000D01*
G75*
G02*
X29220000Y-44365000I0J50000D01*
G01*
G37*
G36*
G01*
X29220000Y-44865000D02*
X29220000Y-44615000D01*
G75*
G02*
X29270000Y-44565000I50000J0D01*
G01*
X29970000Y-44565000D01*
G75*
G02*
X30020000Y-44615000I0J-50000D01*
G01*
X30020000Y-44865000D01*
G75*
G02*
X29970000Y-44915000I-50000J0D01*
G01*
X29270000Y-44915000D01*
G75*
G02*
X29220000Y-44865000I0J50000D01*
G01*
G37*
G36*
G01*
X29220000Y-45365000D02*
X29220000Y-45115000D01*
G75*
G02*
X29270000Y-45065000I50000J0D01*
G01*
X29970000Y-45065000D01*
G75*
G02*
X30020000Y-45115000I0J-50000D01*
G01*
X30020000Y-45365000D01*
G75*
G02*
X29970000Y-45415000I-50000J0D01*
G01*
X29270000Y-45415000D01*
G75*
G02*
X29220000Y-45365000I0J50000D01*
G01*
G37*
G36*
G01*
X29220000Y-45865000D02*
X29220000Y-45615000D01*
G75*
G02*
X29270000Y-45565000I50000J0D01*
G01*
X29970000Y-45565000D01*
G75*
G02*
X30020000Y-45615000I0J-50000D01*
G01*
X30020000Y-45865000D01*
G75*
G02*
X29970000Y-45915000I-50000J0D01*
G01*
X29270000Y-45915000D01*
G75*
G02*
X29220000Y-45865000I0J50000D01*
G01*
G37*
G36*
G01*
X29220000Y-46365000D02*
X29220000Y-46115000D01*
G75*
G02*
X29270000Y-46065000I50000J0D01*
G01*
X29970000Y-46065000D01*
G75*
G02*
X30020000Y-46115000I0J-50000D01*
G01*
X30020000Y-46365000D01*
G75*
G02*
X29970000Y-46415000I-50000J0D01*
G01*
X29270000Y-46415000D01*
G75*
G02*
X29220000Y-46365000I0J50000D01*
G01*
G37*
G36*
G01*
X29220000Y-46865000D02*
X29220000Y-46615000D01*
G75*
G02*
X29270000Y-46565000I50000J0D01*
G01*
X29970000Y-46565000D01*
G75*
G02*
X30020000Y-46615000I0J-50000D01*
G01*
X30020000Y-46865000D01*
G75*
G02*
X29970000Y-46915000I-50000J0D01*
G01*
X29270000Y-46915000D01*
G75*
G02*
X29220000Y-46865000I0J50000D01*
G01*
G37*
G36*
G01*
X29220000Y-47365000D02*
X29220000Y-47115000D01*
G75*
G02*
X29270000Y-47065000I50000J0D01*
G01*
X29970000Y-47065000D01*
G75*
G02*
X30020000Y-47115000I0J-50000D01*
G01*
X30020000Y-47365000D01*
G75*
G02*
X29970000Y-47415000I-50000J0D01*
G01*
X29270000Y-47415000D01*
G75*
G02*
X29220000Y-47365000I0J50000D01*
G01*
G37*
G36*
G01*
X29220000Y-47865000D02*
X29220000Y-47615000D01*
G75*
G02*
X29270000Y-47565000I50000J0D01*
G01*
X29970000Y-47565000D01*
G75*
G02*
X30020000Y-47615000I0J-50000D01*
G01*
X30020000Y-47865000D01*
G75*
G02*
X29970000Y-47915000I-50000J0D01*
G01*
X29270000Y-47915000D01*
G75*
G02*
X29220000Y-47865000I0J50000D01*
G01*
G37*
G36*
G01*
X29220000Y-48365000D02*
X29220000Y-48115000D01*
G75*
G02*
X29270000Y-48065000I50000J0D01*
G01*
X29970000Y-48065000D01*
G75*
G02*
X30020000Y-48115000I0J-50000D01*
G01*
X30020000Y-48365000D01*
G75*
G02*
X29970000Y-48415000I-50000J0D01*
G01*
X29270000Y-48415000D01*
G75*
G02*
X29220000Y-48365000I0J50000D01*
G01*
G37*
G36*
G01*
X29220000Y-48865000D02*
X29220000Y-48615000D01*
G75*
G02*
X29270000Y-48565000I50000J0D01*
G01*
X29970000Y-48565000D01*
G75*
G02*
X30020000Y-48615000I0J-50000D01*
G01*
X30020000Y-48865000D01*
G75*
G02*
X29970000Y-48915000I-50000J0D01*
G01*
X29270000Y-48915000D01*
G75*
G02*
X29220000Y-48865000I0J50000D01*
G01*
G37*
G36*
G01*
X29220000Y-49365000D02*
X29220000Y-49115000D01*
G75*
G02*
X29270000Y-49065000I50000J0D01*
G01*
X29970000Y-49065000D01*
G75*
G02*
X30020000Y-49115000I0J-50000D01*
G01*
X30020000Y-49365000D01*
G75*
G02*
X29970000Y-49415000I-50000J0D01*
G01*
X29270000Y-49415000D01*
G75*
G02*
X29220000Y-49365000I0J50000D01*
G01*
G37*
G36*
G01*
X29220000Y-49865000D02*
X29220000Y-49615000D01*
G75*
G02*
X29270000Y-49565000I50000J0D01*
G01*
X29970000Y-49565000D01*
G75*
G02*
X30020000Y-49615000I0J-50000D01*
G01*
X30020000Y-49865000D01*
G75*
G02*
X29970000Y-49915000I-50000J0D01*
G01*
X29270000Y-49915000D01*
G75*
G02*
X29220000Y-49865000I0J50000D01*
G01*
G37*
%TD*%
D11*
%TO.C,CN1*%
X40640000Y-25400000D03*
X40640000Y-27940000D03*
X40640000Y-30480000D03*
X40640000Y-33020000D03*
X40640000Y-35560000D03*
X40640000Y-38100000D03*
X40640000Y-40640000D03*
X40640000Y-43180000D03*
X40640000Y-45720000D03*
X40640000Y-48260000D03*
X40640000Y-50800000D03*
X40640000Y-53340000D03*
X40640000Y-55880000D03*
X40640000Y-58420000D03*
X40640000Y-60960000D03*
X40640000Y-63500000D03*
X40640000Y-66040000D03*
X25400000Y-66040000D03*
X25400000Y-63500000D03*
X25400000Y-60960000D03*
X25400000Y-58420000D03*
X25400000Y-55880000D03*
X25400000Y-53340000D03*
X25400000Y-50800000D03*
X25400000Y-48260000D03*
X25400000Y-45720000D03*
X25400000Y-43180000D03*
X25400000Y-40640000D03*
X25400000Y-38100000D03*
X25400000Y-35560000D03*
X25400000Y-33020000D03*
X25400000Y-30480000D03*
X25400000Y-27940000D03*
G36*
G01*
X24588000Y-26162000D02*
X24588000Y-24638000D01*
G75*
G02*
X24638000Y-24588000I50000J0D01*
G01*
X26162000Y-24588000D01*
G75*
G02*
X26212000Y-24638000I0J-50000D01*
G01*
X26212000Y-26162000D01*
G75*
G02*
X26162000Y-26212000I-50000J0D01*
G01*
X24638000Y-26212000D01*
G75*
G02*
X24588000Y-26162000I0J50000D01*
G01*
G37*
%TD*%
%TO.C,R2*%
G36*
G01*
X36416612Y-35210000D02*
X35465388Y-35210000D01*
G75*
G02*
X35191000Y-34935612I0J274388D01*
G01*
X35191000Y-34359388D01*
G75*
G02*
X35465388Y-34085000I274388J0D01*
G01*
X36416612Y-34085000D01*
G75*
G02*
X36691000Y-34359388I0J-274388D01*
G01*
X36691000Y-34935612D01*
G75*
G02*
X36416612Y-35210000I-274388J0D01*
G01*
G37*
G36*
G01*
X36416612Y-37035000D02*
X35465388Y-37035000D01*
G75*
G02*
X35191000Y-36760612I0J274388D01*
G01*
X35191000Y-36184388D01*
G75*
G02*
X35465388Y-35910000I274388J0D01*
G01*
X36416612Y-35910000D01*
G75*
G02*
X36691000Y-36184388I0J-274388D01*
G01*
X36691000Y-36760612D01*
G75*
G02*
X36416612Y-37035000I-274388J0D01*
G01*
G37*
%TD*%
%TO.C,R1*%
G36*
G01*
X37051612Y-27590000D02*
X36100388Y-27590000D01*
G75*
G02*
X35826000Y-27315612I0J274388D01*
G01*
X35826000Y-26739388D01*
G75*
G02*
X36100388Y-26465000I274388J0D01*
G01*
X37051612Y-26465000D01*
G75*
G02*
X37326000Y-26739388I0J-274388D01*
G01*
X37326000Y-27315612D01*
G75*
G02*
X37051612Y-27590000I-274388J0D01*
G01*
G37*
G36*
G01*
X37051612Y-29415000D02*
X36100388Y-29415000D01*
G75*
G02*
X35826000Y-29140612I0J274388D01*
G01*
X35826000Y-28564388D01*
G75*
G02*
X36100388Y-28290000I274388J0D01*
G01*
X37051612Y-28290000D01*
G75*
G02*
X37326000Y-28564388I0J-274388D01*
G01*
X37326000Y-29140612D01*
G75*
G02*
X37051612Y-29415000I-274388J0D01*
G01*
G37*
%TD*%
%TO.C,C6*%
G36*
G01*
X34652000Y-39632000D02*
X34652000Y-40632000D01*
G75*
G02*
X34377000Y-40907000I-275000J0D01*
G01*
X33827000Y-40907000D01*
G75*
G02*
X33552000Y-40632000I0J275000D01*
G01*
X33552000Y-39632000D01*
G75*
G02*
X33827000Y-39357000I275000J0D01*
G01*
X34377000Y-39357000D01*
G75*
G02*
X34652000Y-39632000I0J-275000D01*
G01*
G37*
G36*
G01*
X36552000Y-39632000D02*
X36552000Y-40632000D01*
G75*
G02*
X36277000Y-40907000I-275000J0D01*
G01*
X35727000Y-40907000D01*
G75*
G02*
X35452000Y-40632000I0J275000D01*
G01*
X35452000Y-39632000D01*
G75*
G02*
X35727000Y-39357000I275000J0D01*
G01*
X36277000Y-39357000D01*
G75*
G02*
X36552000Y-39632000I0J-275000D01*
G01*
G37*
%TD*%
%TO.C,C5*%
G36*
G01*
X34652000Y-37727000D02*
X34652000Y-38727000D01*
G75*
G02*
X34377000Y-39002000I-275000J0D01*
G01*
X33827000Y-39002000D01*
G75*
G02*
X33552000Y-38727000I0J275000D01*
G01*
X33552000Y-37727000D01*
G75*
G02*
X33827000Y-37452000I275000J0D01*
G01*
X34377000Y-37452000D01*
G75*
G02*
X34652000Y-37727000I0J-275000D01*
G01*
G37*
G36*
G01*
X36552000Y-37727000D02*
X36552000Y-38727000D01*
G75*
G02*
X36277000Y-39002000I-275000J0D01*
G01*
X35727000Y-39002000D01*
G75*
G02*
X35452000Y-38727000I0J275000D01*
G01*
X35452000Y-37727000D01*
G75*
G02*
X35727000Y-37452000I275000J0D01*
G01*
X36277000Y-37452000D01*
G75*
G02*
X36552000Y-37727000I0J-275000D01*
G01*
G37*
%TD*%
%TO.C,C4*%
G36*
G01*
X31107000Y-25635000D02*
X30107000Y-25635000D01*
G75*
G02*
X29832000Y-25360000I0J275000D01*
G01*
X29832000Y-24810000D01*
G75*
G02*
X30107000Y-24535000I275000J0D01*
G01*
X31107000Y-24535000D01*
G75*
G02*
X31382000Y-24810000I0J-275000D01*
G01*
X31382000Y-25360000D01*
G75*
G02*
X31107000Y-25635000I-275000J0D01*
G01*
G37*
G36*
G01*
X31107000Y-27535000D02*
X30107000Y-27535000D01*
G75*
G02*
X29832000Y-27260000I0J275000D01*
G01*
X29832000Y-26710000D01*
G75*
G02*
X30107000Y-26435000I275000J0D01*
G01*
X31107000Y-26435000D01*
G75*
G02*
X31382000Y-26710000I0J-275000D01*
G01*
X31382000Y-27260000D01*
G75*
G02*
X31107000Y-27535000I-275000J0D01*
G01*
G37*
%TD*%
%TO.C,C3*%
G36*
G01*
X33128000Y-31885000D02*
X33128000Y-32885000D01*
G75*
G02*
X32853000Y-33160000I-275000J0D01*
G01*
X32303000Y-33160000D01*
G75*
G02*
X32028000Y-32885000I0J275000D01*
G01*
X32028000Y-31885000D01*
G75*
G02*
X32303000Y-31610000I275000J0D01*
G01*
X32853000Y-31610000D01*
G75*
G02*
X33128000Y-31885000I0J-275000D01*
G01*
G37*
G36*
G01*
X35028000Y-31885000D02*
X35028000Y-32885000D01*
G75*
G02*
X34753000Y-33160000I-275000J0D01*
G01*
X34203000Y-33160000D01*
G75*
G02*
X33928000Y-32885000I0J275000D01*
G01*
X33928000Y-31885000D01*
G75*
G02*
X34203000Y-31610000I275000J0D01*
G01*
X34753000Y-31610000D01*
G75*
G02*
X35028000Y-31885000I0J-275000D01*
G01*
G37*
%TD*%
%TO.C,C2*%
G36*
G01*
X38981000Y-27540000D02*
X37981000Y-27540000D01*
G75*
G02*
X37706000Y-27265000I0J275000D01*
G01*
X37706000Y-26715000D01*
G75*
G02*
X37981000Y-26440000I275000J0D01*
G01*
X38981000Y-26440000D01*
G75*
G02*
X39256000Y-26715000I0J-275000D01*
G01*
X39256000Y-27265000D01*
G75*
G02*
X38981000Y-27540000I-275000J0D01*
G01*
G37*
G36*
G01*
X38981000Y-29440000D02*
X37981000Y-29440000D01*
G75*
G02*
X37706000Y-29165000I0J275000D01*
G01*
X37706000Y-28615000D01*
G75*
G02*
X37981000Y-28340000I275000J0D01*
G01*
X38981000Y-28340000D01*
G75*
G02*
X39256000Y-28615000I0J-275000D01*
G01*
X39256000Y-29165000D01*
G75*
G02*
X38981000Y-29440000I-275000J0D01*
G01*
G37*
%TD*%
%TO.C,C1*%
G36*
G01*
X37192000Y-24646000D02*
X37192000Y-25646000D01*
G75*
G02*
X36917000Y-25921000I-275000J0D01*
G01*
X36367000Y-25921000D01*
G75*
G02*
X36092000Y-25646000I0J275000D01*
G01*
X36092000Y-24646000D01*
G75*
G02*
X36367000Y-24371000I275000J0D01*
G01*
X36917000Y-24371000D01*
G75*
G02*
X37192000Y-24646000I0J-275000D01*
G01*
G37*
G36*
G01*
X39092000Y-24646000D02*
X39092000Y-25646000D01*
G75*
G02*
X38817000Y-25921000I-275000J0D01*
G01*
X38267000Y-25921000D01*
G75*
G02*
X37992000Y-25646000I0J275000D01*
G01*
X37992000Y-24646000D01*
G75*
G02*
X38267000Y-24371000I275000J0D01*
G01*
X38817000Y-24371000D01*
G75*
G02*
X39092000Y-24646000I0J-275000D01*
G01*
G37*
%TD*%
%TO.C,U3*%
G36*
G01*
X32253000Y-30238000D02*
X32903000Y-30238000D01*
G75*
G02*
X32953000Y-30288000I0J-50000D01*
G01*
X32953000Y-31348000D01*
G75*
G02*
X32903000Y-31398000I-50000J0D01*
G01*
X32253000Y-31398000D01*
G75*
G02*
X32203000Y-31348000I0J50000D01*
G01*
X32203000Y-30288000D01*
G75*
G02*
X32253000Y-30238000I50000J0D01*
G01*
G37*
G36*
G01*
X34153000Y-30238000D02*
X34803000Y-30238000D01*
G75*
G02*
X34853000Y-30288000I0J-50000D01*
G01*
X34853000Y-31348000D01*
G75*
G02*
X34803000Y-31398000I-50000J0D01*
G01*
X34153000Y-31398000D01*
G75*
G02*
X34103000Y-31348000I0J50000D01*
G01*
X34103000Y-30288000D01*
G75*
G02*
X34153000Y-30238000I50000J0D01*
G01*
G37*
G36*
G01*
X34153000Y-28038000D02*
X34803000Y-28038000D01*
G75*
G02*
X34853000Y-28088000I0J-50000D01*
G01*
X34853000Y-29148000D01*
G75*
G02*
X34803000Y-29198000I-50000J0D01*
G01*
X34153000Y-29198000D01*
G75*
G02*
X34103000Y-29148000I0J50000D01*
G01*
X34103000Y-28088000D01*
G75*
G02*
X34153000Y-28038000I50000J0D01*
G01*
G37*
G36*
G01*
X33203000Y-28038000D02*
X33853000Y-28038000D01*
G75*
G02*
X33903000Y-28088000I0J-50000D01*
G01*
X33903000Y-29148000D01*
G75*
G02*
X33853000Y-29198000I-50000J0D01*
G01*
X33203000Y-29198000D01*
G75*
G02*
X33153000Y-29148000I0J50000D01*
G01*
X33153000Y-28088000D01*
G75*
G02*
X33203000Y-28038000I50000J0D01*
G01*
G37*
G36*
G01*
X32253000Y-28038000D02*
X32903000Y-28038000D01*
G75*
G02*
X32953000Y-28088000I0J-50000D01*
G01*
X32953000Y-29148000D01*
G75*
G02*
X32903000Y-29198000I-50000J0D01*
G01*
X32253000Y-29198000D01*
G75*
G02*
X32203000Y-29148000I0J50000D01*
G01*
X32203000Y-28088000D01*
G75*
G02*
X32253000Y-28038000I50000J0D01*
G01*
G37*
%TD*%
%TO.C,U2*%
G36*
G01*
X34048000Y-27310000D02*
X34048000Y-26660000D01*
G75*
G02*
X34098000Y-26610000I50000J0D01*
G01*
X35158000Y-26610000D01*
G75*
G02*
X35208000Y-26660000I0J-50000D01*
G01*
X35208000Y-27310000D01*
G75*
G02*
X35158000Y-27360000I-50000J0D01*
G01*
X34098000Y-27360000D01*
G75*
G02*
X34048000Y-27310000I0J50000D01*
G01*
G37*
G36*
G01*
X34048000Y-25410000D02*
X34048000Y-24760000D01*
G75*
G02*
X34098000Y-24710000I50000J0D01*
G01*
X35158000Y-24710000D01*
G75*
G02*
X35208000Y-24760000I0J-50000D01*
G01*
X35208000Y-25410000D01*
G75*
G02*
X35158000Y-25460000I-50000J0D01*
G01*
X34098000Y-25460000D01*
G75*
G02*
X34048000Y-25410000I0J50000D01*
G01*
G37*
G36*
G01*
X31848000Y-25410000D02*
X31848000Y-24760000D01*
G75*
G02*
X31898000Y-24710000I50000J0D01*
G01*
X32958000Y-24710000D01*
G75*
G02*
X33008000Y-24760000I0J-50000D01*
G01*
X33008000Y-25410000D01*
G75*
G02*
X32958000Y-25460000I-50000J0D01*
G01*
X31898000Y-25460000D01*
G75*
G02*
X31848000Y-25410000I0J50000D01*
G01*
G37*
G36*
G01*
X31848000Y-26360000D02*
X31848000Y-25710000D01*
G75*
G02*
X31898000Y-25660000I50000J0D01*
G01*
X32958000Y-25660000D01*
G75*
G02*
X33008000Y-25710000I0J-50000D01*
G01*
X33008000Y-26360000D01*
G75*
G02*
X32958000Y-26410000I-50000J0D01*
G01*
X31898000Y-26410000D01*
G75*
G02*
X31848000Y-26360000I0J50000D01*
G01*
G37*
G36*
G01*
X31848000Y-27310000D02*
X31848000Y-26660000D01*
G75*
G02*
X31898000Y-26610000I50000J0D01*
G01*
X32958000Y-26610000D01*
G75*
G02*
X33008000Y-26660000I0J-50000D01*
G01*
X33008000Y-27310000D01*
G75*
G02*
X32958000Y-27360000I-50000J0D01*
G01*
X31898000Y-27360000D01*
G75*
G02*
X31848000Y-27310000I0J50000D01*
G01*
G37*
%TD*%
D12*
%TO.C,TP3*%
X35941000Y-32385000D03*
%TD*%
%TO.C,TP2*%
X30607000Y-28702000D03*
%TD*%
%TO.C,TP1*%
X38481000Y-30480000D03*
%TD*%
M02*
