%TF.GenerationSoftware,KiCad,Pcbnew,5.1.8*%
%TF.CreationDate,2020-11-13T13:51:11+03:00*%
%TF.ProjectId,leech,6c656563-682e-46b6-9963-61645f706362,rev?*%
%TF.SameCoordinates,Original*%
%TF.FileFunction,Copper,L1,Top*%
%TF.FilePolarity,Positive*%
%FSLAX46Y46*%
G04 Gerber Fmt 4.6, Leading zero omitted, Abs format (unit mm)*
G04 Created by KiCad (PCBNEW 5.1.8) date 2020-11-13 13:51:11*
%MOMM*%
%LPD*%
G01*
G04 APERTURE LIST*
%TA.AperFunction,ComponentPad*%
%ADD10C,0.700000*%
%TD*%
%TA.AperFunction,ComponentPad*%
%ADD11C,1.524000*%
%TD*%
%TA.AperFunction,ComponentPad*%
%ADD12R,1.524000X1.524000*%
%TD*%
%TA.AperFunction,ViaPad*%
%ADD13C,0.700000*%
%TD*%
%TA.AperFunction,Conductor*%
%ADD14C,0.300000*%
%TD*%
%TA.AperFunction,Conductor*%
%ADD15C,0.200000*%
%TD*%
%TA.AperFunction,Conductor*%
%ADD16C,0.100000*%
%TD*%
G04 APERTURE END LIST*
D10*
%TO.P,U1,EP*%
%TO.N,GND*%
X34420000Y-45590000D03*
X34420000Y-46990000D03*
X34420000Y-48390000D03*
X33020000Y-45590000D03*
X33020000Y-46990000D03*
X33020000Y-48390000D03*
X31620000Y-45590000D03*
X31620000Y-46990000D03*
X31620000Y-48390000D03*
%TD*%
D11*
%TO.P,CN1,40*%
%TO.N,Net-(CN1-Pad40)*%
X40640000Y-25400000D03*
%TO.P,CN1,39*%
%TO.N,GND*%
X40640000Y-27940000D03*
%TO.P,CN1,38*%
%TO.N,/PILL_3V3*%
X40640000Y-30480000D03*
%TO.P,CN1,37*%
%TO.N,/IO18*%
X40640000Y-33020000D03*
%TO.P,CN1,36*%
%TO.N,/CRESET*%
X40640000Y-35560000D03*
%TO.P,CN1,35*%
%TO.N,/IO25*%
X40640000Y-38100000D03*
%TO.P,CN1,34*%
%TO.N,/IO26*%
X40640000Y-40640000D03*
%TO.P,CN1,33*%
%TO.N,/IO27*%
X40640000Y-43180000D03*
%TO.P,CN1,32*%
%TO.N,/IO28*%
X40640000Y-45720000D03*
%TO.P,CN1,31*%
%TO.N,/IO34*%
X40640000Y-48260000D03*
%TO.P,CN1,30*%
%TO.N,/IO35*%
X40640000Y-50800000D03*
%TO.P,CN1,29*%
%TO.N,/IO36*%
X40640000Y-53340000D03*
%TO.P,CN1,28*%
%TO.N,/IO37*%
X40640000Y-55880000D03*
%TO.P,CN1,27*%
%TO.N,/IO38*%
X40640000Y-58420000D03*
%TO.P,CN1,26*%
%TO.N,/IO42*%
X40640000Y-60960000D03*
%TO.P,CN1,25*%
%TO.N,/IO43*%
X40640000Y-63500000D03*
%TO.P,CN1,24*%
%TO.N,Net-(CN1-Pad24)*%
X40640000Y-66040000D03*
%TO.P,CN1,17*%
%TO.N,/IO44*%
X25400000Y-66040000D03*
%TO.P,CN1,16*%
%TO.N,/IO45*%
X25400000Y-63500000D03*
%TO.P,CN1,15*%
%TO.N,/IO46*%
X25400000Y-60960000D03*
%TO.P,CN1,14*%
%TO.N,/IO47*%
X25400000Y-58420000D03*
%TO.P,CN1,13*%
%TO.N,/IO48*%
X25400000Y-55880000D03*
%TO.P,CN1,12*%
%TO.N,/IO2*%
X25400000Y-53340000D03*
%TO.P,CN1,11*%
%TO.N,/IO3*%
X25400000Y-50800000D03*
%TO.P,CN1,10*%
%TO.N,/IO6*%
X25400000Y-48260000D03*
%TO.P,CN1,9*%
%TO.N,/IO10*%
X25400000Y-45720000D03*
%TO.P,CN1,8*%
%TO.N,/IO11*%
X25400000Y-43180000D03*
%TO.P,CN1,7*%
%TO.N,/IO12*%
X25400000Y-40640000D03*
%TO.P,CN1,6*%
%TO.N,/IO13*%
X25400000Y-38100000D03*
%TO.P,CN1,5*%
%TO.N,/CLK*%
X25400000Y-35560000D03*
%TO.P,CN1,4*%
%TO.N,/ICE_SI*%
X25400000Y-33020000D03*
%TO.P,CN1,3*%
%TO.N,/ICE_SO*%
X25400000Y-30480000D03*
%TO.P,CN1,2*%
%TO.N,/ICE_SCK*%
X25400000Y-27940000D03*
D12*
%TO.P,CN1,1*%
%TO.N,/ICE_SS*%
X25400000Y-25400000D03*
%TD*%
D13*
%TO.N,GND*%
X31623000Y-32385000D03*
X33274000Y-38227000D03*
X33528000Y-29591000D03*
X33401000Y-26035000D03*
%TO.N,/ICE_1V2*%
X37338000Y-47117000D03*
X35941000Y-33782000D03*
X28702000Y-47752000D03*
%TO.N,/ICE_VCCPLL*%
X36957000Y-40132000D03*
X38036500Y-46418500D03*
%TO.N,/ICE_3V3*%
X29591000Y-50419000D03*
X37719000Y-48006000D03*
X37719000Y-42926000D03*
X36957000Y-35560000D03*
%TO.N,/CRESET*%
X34671000Y-42240200D03*
X28702000Y-46228000D03*
%TO.N,/CLK*%
X33426400Y-42545000D03*
%TO.N,/ICE_SI*%
X32258000Y-39878000D03*
%TD*%
D14*
%TO.N,/ICE_1V2*%
X37338000Y-46609000D02*
X37338000Y-47117000D01*
X36372800Y-45643800D02*
X37338000Y-46609000D01*
X36372800Y-40894000D02*
X36372800Y-45643800D01*
X35941000Y-40462200D02*
X36372800Y-40894000D01*
X35941000Y-33782000D02*
X35941000Y-40462200D01*
X36765000Y-47690000D02*
X37338000Y-47117000D01*
X28764000Y-47690000D02*
X36765000Y-47690000D01*
X28702000Y-47752000D02*
X28764000Y-47690000D01*
%TO.N,/ICE_VCCPLL*%
X36957000Y-45339000D02*
X36957000Y-40132000D01*
X38036500Y-46418500D02*
X36957000Y-45339000D01*
%TO.N,/ICE_3V3*%
X35306000Y-50419000D02*
X37719000Y-48006000D01*
X29591000Y-50419000D02*
X35306000Y-50419000D01*
X37719000Y-36322000D02*
X37719000Y-42926000D01*
X36957000Y-35560000D02*
X37719000Y-36322000D01*
X38735000Y-46990000D02*
X37719000Y-48006000D01*
X38760400Y-46964600D02*
X38735000Y-46990000D01*
X38760400Y-46126400D02*
X38760400Y-46964600D01*
X37719000Y-45085000D02*
X38760400Y-46126400D01*
X37719000Y-42926000D02*
X37719000Y-45085000D01*
D15*
%TO.N,/CRESET*%
X33604200Y-43307000D02*
X34671000Y-42240200D01*
X30099000Y-43307000D02*
X33604200Y-43307000D01*
X28702000Y-44704000D02*
X30099000Y-43307000D01*
X28702000Y-46228000D02*
X28702000Y-44704000D01*
%TO.N,/CLK*%
X27305000Y-37465000D02*
X25400000Y-35560000D01*
X33426400Y-42545000D02*
X32385000Y-42545000D01*
X32385000Y-42545000D02*
X27305000Y-37465000D01*
%TO.N,/ICE_SI*%
X32258000Y-39878000D02*
X25400000Y-33020000D01*
%TD*%
D14*
%TO.N,GND*%
X39698578Y-24627395D02*
X39565940Y-24825903D01*
X39474577Y-25046473D01*
X39428000Y-25280628D01*
X39428000Y-25519372D01*
X39474577Y-25753527D01*
X39565940Y-25974097D01*
X39698578Y-26172605D01*
X39867395Y-26341422D01*
X40065903Y-26474060D01*
X40286473Y-26565423D01*
X40520628Y-26612000D01*
X40759372Y-26612000D01*
X40993527Y-26565423D01*
X41214097Y-26474060D01*
X41412605Y-26341422D01*
X41435000Y-26319027D01*
X41435000Y-26962554D01*
X41410855Y-26870502D01*
X41187395Y-26740666D01*
X40942899Y-26656919D01*
X40686762Y-26622480D01*
X40428828Y-26638673D01*
X40179010Y-26704875D01*
X39946907Y-26818543D01*
X39869145Y-26870502D01*
X39808558Y-27101487D01*
X40640000Y-27932929D01*
X40654143Y-27918787D01*
X40661214Y-27925858D01*
X40647071Y-27940000D01*
X40661214Y-27954143D01*
X40654143Y-27961214D01*
X40640000Y-27947071D01*
X39808558Y-28778513D01*
X39869145Y-29009498D01*
X40092605Y-29139334D01*
X40337101Y-29223081D01*
X40593238Y-29257520D01*
X40851172Y-29241327D01*
X41100990Y-29175125D01*
X41333093Y-29061457D01*
X41410855Y-29009498D01*
X41435000Y-28917446D01*
X41435000Y-29560973D01*
X41412605Y-29538578D01*
X41214097Y-29405940D01*
X40993527Y-29314577D01*
X40759372Y-29268000D01*
X40520628Y-29268000D01*
X40286473Y-29314577D01*
X40065903Y-29405940D01*
X39867395Y-29538578D01*
X39698578Y-29707395D01*
X39565940Y-29905903D01*
X39474577Y-30126473D01*
X39428000Y-30360628D01*
X39428000Y-30599372D01*
X39474577Y-30833527D01*
X39565940Y-31054097D01*
X39698578Y-31252605D01*
X39867395Y-31421422D01*
X40065903Y-31554060D01*
X40286473Y-31645423D01*
X40520628Y-31692000D01*
X40759372Y-31692000D01*
X40993527Y-31645423D01*
X41214097Y-31554060D01*
X41412605Y-31421422D01*
X41435000Y-31399027D01*
X41435000Y-32100973D01*
X41412605Y-32078578D01*
X41214097Y-31945940D01*
X40993527Y-31854577D01*
X40759372Y-31808000D01*
X40520628Y-31808000D01*
X40286473Y-31854577D01*
X40065903Y-31945940D01*
X39867395Y-32078578D01*
X39698578Y-32247395D01*
X39565940Y-32445903D01*
X39474577Y-32666473D01*
X39428000Y-32900628D01*
X39428000Y-33139372D01*
X39474577Y-33373527D01*
X39565940Y-33594097D01*
X39698578Y-33792605D01*
X39867395Y-33961422D01*
X40065903Y-34094060D01*
X40286473Y-34185423D01*
X40520628Y-34232000D01*
X40759372Y-34232000D01*
X40993527Y-34185423D01*
X41214097Y-34094060D01*
X41412605Y-33961422D01*
X41435000Y-33939027D01*
X41435000Y-34640973D01*
X41412605Y-34618578D01*
X41214097Y-34485940D01*
X40993527Y-34394577D01*
X40759372Y-34348000D01*
X40520628Y-34348000D01*
X40286473Y-34394577D01*
X40065903Y-34485940D01*
X39867395Y-34618578D01*
X39698578Y-34787395D01*
X39565940Y-34985903D01*
X39474577Y-35206473D01*
X39428000Y-35440628D01*
X39428000Y-35679372D01*
X39474577Y-35913527D01*
X39565940Y-36134097D01*
X39698578Y-36332605D01*
X39867395Y-36501422D01*
X40065903Y-36634060D01*
X40286473Y-36725423D01*
X40520628Y-36772000D01*
X40759372Y-36772000D01*
X40993527Y-36725423D01*
X41214097Y-36634060D01*
X41412605Y-36501422D01*
X41435000Y-36479027D01*
X41435000Y-37180973D01*
X41412605Y-37158578D01*
X41214097Y-37025940D01*
X40993527Y-36934577D01*
X40759372Y-36888000D01*
X40520628Y-36888000D01*
X40286473Y-36934577D01*
X40065903Y-37025940D01*
X39867395Y-37158578D01*
X39698578Y-37327395D01*
X39565940Y-37525903D01*
X39474577Y-37746473D01*
X39428000Y-37980628D01*
X39428000Y-38219372D01*
X39474577Y-38453527D01*
X39565940Y-38674097D01*
X39698578Y-38872605D01*
X39867395Y-39041422D01*
X40065903Y-39174060D01*
X40286473Y-39265423D01*
X40520628Y-39312000D01*
X40759372Y-39312000D01*
X40993527Y-39265423D01*
X41214097Y-39174060D01*
X41412605Y-39041422D01*
X41435000Y-39019027D01*
X41435000Y-39720973D01*
X41412605Y-39698578D01*
X41214097Y-39565940D01*
X40993527Y-39474577D01*
X40759372Y-39428000D01*
X40520628Y-39428000D01*
X40286473Y-39474577D01*
X40065903Y-39565940D01*
X39867395Y-39698578D01*
X39698578Y-39867395D01*
X39565940Y-40065903D01*
X39474577Y-40286473D01*
X39428000Y-40520628D01*
X39428000Y-40759372D01*
X39474577Y-40993527D01*
X39565940Y-41214097D01*
X39698578Y-41412605D01*
X39867395Y-41581422D01*
X40065903Y-41714060D01*
X40286473Y-41805423D01*
X40520628Y-41852000D01*
X40759372Y-41852000D01*
X40993527Y-41805423D01*
X41214097Y-41714060D01*
X41412605Y-41581422D01*
X41435000Y-41559027D01*
X41435000Y-42260973D01*
X41412605Y-42238578D01*
X41214097Y-42105940D01*
X40993527Y-42014577D01*
X40759372Y-41968000D01*
X40520628Y-41968000D01*
X40286473Y-42014577D01*
X40065903Y-42105940D01*
X39867395Y-42238578D01*
X39698578Y-42407395D01*
X39565940Y-42605903D01*
X39474577Y-42826473D01*
X39428000Y-43060628D01*
X39428000Y-43299372D01*
X39474577Y-43533527D01*
X39565940Y-43754097D01*
X39698578Y-43952605D01*
X39867395Y-44121422D01*
X40065903Y-44254060D01*
X40286473Y-44345423D01*
X40520628Y-44392000D01*
X40759372Y-44392000D01*
X40993527Y-44345423D01*
X41214097Y-44254060D01*
X41412605Y-44121422D01*
X41435000Y-44099027D01*
X41435000Y-44800973D01*
X41412605Y-44778578D01*
X41214097Y-44645940D01*
X40993527Y-44554577D01*
X40759372Y-44508000D01*
X40520628Y-44508000D01*
X40286473Y-44554577D01*
X40065903Y-44645940D01*
X39867395Y-44778578D01*
X39698578Y-44947395D01*
X39565940Y-45145903D01*
X39474577Y-45366473D01*
X39428000Y-45600628D01*
X39428000Y-45839372D01*
X39474577Y-46073527D01*
X39565940Y-46294097D01*
X39698578Y-46492605D01*
X39867395Y-46661422D01*
X40065903Y-46794060D01*
X40286473Y-46885423D01*
X40520628Y-46932000D01*
X40759372Y-46932000D01*
X40993527Y-46885423D01*
X41214097Y-46794060D01*
X41412605Y-46661422D01*
X41435001Y-46639026D01*
X41435001Y-47340974D01*
X41412605Y-47318578D01*
X41214097Y-47185940D01*
X40993527Y-47094577D01*
X40759372Y-47048000D01*
X40520628Y-47048000D01*
X40286473Y-47094577D01*
X40065903Y-47185940D01*
X39867395Y-47318578D01*
X39698578Y-47487395D01*
X39565940Y-47685903D01*
X39474577Y-47906473D01*
X39428000Y-48140628D01*
X39428000Y-48379372D01*
X39474577Y-48613527D01*
X39565940Y-48834097D01*
X39698578Y-49032605D01*
X39867395Y-49201422D01*
X40065903Y-49334060D01*
X40286473Y-49425423D01*
X40520628Y-49472000D01*
X40759372Y-49472000D01*
X40993527Y-49425423D01*
X41214097Y-49334060D01*
X41412605Y-49201422D01*
X41435001Y-49179026D01*
X41435001Y-49880974D01*
X41412605Y-49858578D01*
X41214097Y-49725940D01*
X40993527Y-49634577D01*
X40759372Y-49588000D01*
X40520628Y-49588000D01*
X40286473Y-49634577D01*
X40065903Y-49725940D01*
X39867395Y-49858578D01*
X39698578Y-50027395D01*
X39565940Y-50225903D01*
X39474577Y-50446473D01*
X39428000Y-50680628D01*
X39428000Y-50919372D01*
X39474577Y-51153527D01*
X39565940Y-51374097D01*
X39698578Y-51572605D01*
X39867395Y-51741422D01*
X40065903Y-51874060D01*
X40286473Y-51965423D01*
X40520628Y-52012000D01*
X40759372Y-52012000D01*
X40993527Y-51965423D01*
X41214097Y-51874060D01*
X41412605Y-51741422D01*
X41435001Y-51719026D01*
X41435001Y-52420974D01*
X41412605Y-52398578D01*
X41214097Y-52265940D01*
X40993527Y-52174577D01*
X40759372Y-52128000D01*
X40520628Y-52128000D01*
X40286473Y-52174577D01*
X40065903Y-52265940D01*
X39867395Y-52398578D01*
X39698578Y-52567395D01*
X39565940Y-52765903D01*
X39474577Y-52986473D01*
X39428000Y-53220628D01*
X39428000Y-53459372D01*
X39474577Y-53693527D01*
X39565940Y-53914097D01*
X39698578Y-54112605D01*
X39867395Y-54281422D01*
X40065903Y-54414060D01*
X40286473Y-54505423D01*
X40520628Y-54552000D01*
X40759372Y-54552000D01*
X40993527Y-54505423D01*
X41214097Y-54414060D01*
X41412605Y-54281422D01*
X41435001Y-54259026D01*
X41435001Y-54960974D01*
X41412605Y-54938578D01*
X41214097Y-54805940D01*
X40993527Y-54714577D01*
X40759372Y-54668000D01*
X40520628Y-54668000D01*
X40286473Y-54714577D01*
X40065903Y-54805940D01*
X39867395Y-54938578D01*
X39698578Y-55107395D01*
X39565940Y-55305903D01*
X39474577Y-55526473D01*
X39428000Y-55760628D01*
X39428000Y-55999372D01*
X39474577Y-56233527D01*
X39565940Y-56454097D01*
X39698578Y-56652605D01*
X39867395Y-56821422D01*
X40065903Y-56954060D01*
X40286473Y-57045423D01*
X40520628Y-57092000D01*
X40759372Y-57092000D01*
X40993527Y-57045423D01*
X41214097Y-56954060D01*
X41412605Y-56821422D01*
X41435001Y-56799026D01*
X41435001Y-57500974D01*
X41412605Y-57478578D01*
X41214097Y-57345940D01*
X40993527Y-57254577D01*
X40759372Y-57208000D01*
X40520628Y-57208000D01*
X40286473Y-57254577D01*
X40065903Y-57345940D01*
X39867395Y-57478578D01*
X39698578Y-57647395D01*
X39565940Y-57845903D01*
X39474577Y-58066473D01*
X39428000Y-58300628D01*
X39428000Y-58539372D01*
X39474577Y-58773527D01*
X39565940Y-58994097D01*
X39698578Y-59192605D01*
X39867395Y-59361422D01*
X40065903Y-59494060D01*
X40286473Y-59585423D01*
X40520628Y-59632000D01*
X40759372Y-59632000D01*
X40993527Y-59585423D01*
X41214097Y-59494060D01*
X41412605Y-59361422D01*
X41435001Y-59339026D01*
X41435001Y-60040974D01*
X41412605Y-60018578D01*
X41214097Y-59885940D01*
X40993527Y-59794577D01*
X40759372Y-59748000D01*
X40520628Y-59748000D01*
X40286473Y-59794577D01*
X40065903Y-59885940D01*
X39867395Y-60018578D01*
X39698578Y-60187395D01*
X39565940Y-60385903D01*
X39474577Y-60606473D01*
X39428000Y-60840628D01*
X39428000Y-61079372D01*
X39474577Y-61313527D01*
X39565940Y-61534097D01*
X39698578Y-61732605D01*
X39867395Y-61901422D01*
X40065903Y-62034060D01*
X40286473Y-62125423D01*
X40520628Y-62172000D01*
X40759372Y-62172000D01*
X40993527Y-62125423D01*
X41214097Y-62034060D01*
X41412605Y-61901422D01*
X41435001Y-61879026D01*
X41435001Y-62580974D01*
X41412605Y-62558578D01*
X41214097Y-62425940D01*
X40993527Y-62334577D01*
X40759372Y-62288000D01*
X40520628Y-62288000D01*
X40286473Y-62334577D01*
X40065903Y-62425940D01*
X39867395Y-62558578D01*
X39698578Y-62727395D01*
X39565940Y-62925903D01*
X39474577Y-63146473D01*
X39428000Y-63380628D01*
X39428000Y-63619372D01*
X39474577Y-63853527D01*
X39565940Y-64074097D01*
X39698578Y-64272605D01*
X39867395Y-64441422D01*
X40065903Y-64574060D01*
X40286473Y-64665423D01*
X40520628Y-64712000D01*
X40759372Y-64712000D01*
X40993527Y-64665423D01*
X41214097Y-64574060D01*
X41412605Y-64441422D01*
X41435001Y-64419026D01*
X41435001Y-65120974D01*
X41412605Y-65098578D01*
X41214097Y-64965940D01*
X40993527Y-64874577D01*
X40759372Y-64828000D01*
X40520628Y-64828000D01*
X40286473Y-64874577D01*
X40065903Y-64965940D01*
X39867395Y-65098578D01*
X39698578Y-65267395D01*
X39565940Y-65465903D01*
X39474577Y-65686473D01*
X39428000Y-65920628D01*
X39428000Y-66159372D01*
X39474577Y-66393527D01*
X39565940Y-66614097D01*
X39698578Y-66812605D01*
X39720973Y-66835000D01*
X26319027Y-66835000D01*
X26341422Y-66812605D01*
X26474060Y-66614097D01*
X26565423Y-66393527D01*
X26612000Y-66159372D01*
X26612000Y-65920628D01*
X26565423Y-65686473D01*
X26474060Y-65465903D01*
X26341422Y-65267395D01*
X26172605Y-65098578D01*
X25974097Y-64965940D01*
X25753527Y-64874577D01*
X25519372Y-64828000D01*
X25280628Y-64828000D01*
X25046473Y-64874577D01*
X24825903Y-64965940D01*
X24627395Y-65098578D01*
X24605000Y-65120973D01*
X24605000Y-64419027D01*
X24627395Y-64441422D01*
X24825903Y-64574060D01*
X25046473Y-64665423D01*
X25280628Y-64712000D01*
X25519372Y-64712000D01*
X25753527Y-64665423D01*
X25974097Y-64574060D01*
X26172605Y-64441422D01*
X26341422Y-64272605D01*
X26474060Y-64074097D01*
X26565423Y-63853527D01*
X26612000Y-63619372D01*
X26612000Y-63380628D01*
X26565423Y-63146473D01*
X26474060Y-62925903D01*
X26341422Y-62727395D01*
X26172605Y-62558578D01*
X25974097Y-62425940D01*
X25753527Y-62334577D01*
X25519372Y-62288000D01*
X25280628Y-62288000D01*
X25046473Y-62334577D01*
X24825903Y-62425940D01*
X24627395Y-62558578D01*
X24605000Y-62580973D01*
X24605000Y-61879027D01*
X24627395Y-61901422D01*
X24825903Y-62034060D01*
X25046473Y-62125423D01*
X25280628Y-62172000D01*
X25519372Y-62172000D01*
X25753527Y-62125423D01*
X25974097Y-62034060D01*
X26172605Y-61901422D01*
X26341422Y-61732605D01*
X26474060Y-61534097D01*
X26565423Y-61313527D01*
X26612000Y-61079372D01*
X26612000Y-60840628D01*
X26565423Y-60606473D01*
X26474060Y-60385903D01*
X26341422Y-60187395D01*
X26172605Y-60018578D01*
X25974097Y-59885940D01*
X25753527Y-59794577D01*
X25519372Y-59748000D01*
X25280628Y-59748000D01*
X25046473Y-59794577D01*
X24825903Y-59885940D01*
X24627395Y-60018578D01*
X24605000Y-60040973D01*
X24605000Y-59339027D01*
X24627395Y-59361422D01*
X24825903Y-59494060D01*
X25046473Y-59585423D01*
X25280628Y-59632000D01*
X25519372Y-59632000D01*
X25753527Y-59585423D01*
X25974097Y-59494060D01*
X26172605Y-59361422D01*
X26341422Y-59192605D01*
X26474060Y-58994097D01*
X26565423Y-58773527D01*
X26612000Y-58539372D01*
X26612000Y-58300628D01*
X26565423Y-58066473D01*
X26474060Y-57845903D01*
X26341422Y-57647395D01*
X26172605Y-57478578D01*
X25974097Y-57345940D01*
X25753527Y-57254577D01*
X25519372Y-57208000D01*
X25280628Y-57208000D01*
X25046473Y-57254577D01*
X24825903Y-57345940D01*
X24627395Y-57478578D01*
X24605000Y-57500973D01*
X24605000Y-56799027D01*
X24627395Y-56821422D01*
X24825903Y-56954060D01*
X25046473Y-57045423D01*
X25280628Y-57092000D01*
X25519372Y-57092000D01*
X25753527Y-57045423D01*
X25974097Y-56954060D01*
X26172605Y-56821422D01*
X26341422Y-56652605D01*
X26474060Y-56454097D01*
X26565423Y-56233527D01*
X26612000Y-55999372D01*
X26612000Y-55760628D01*
X26565423Y-55526473D01*
X26474060Y-55305903D01*
X26341422Y-55107395D01*
X26172605Y-54938578D01*
X25974097Y-54805940D01*
X25753527Y-54714577D01*
X25519372Y-54668000D01*
X25280628Y-54668000D01*
X25046473Y-54714577D01*
X24825903Y-54805940D01*
X24627395Y-54938578D01*
X24605000Y-54960973D01*
X24605000Y-54259027D01*
X24627395Y-54281422D01*
X24825903Y-54414060D01*
X25046473Y-54505423D01*
X25280628Y-54552000D01*
X25519372Y-54552000D01*
X25753527Y-54505423D01*
X25974097Y-54414060D01*
X26172605Y-54281422D01*
X26341422Y-54112605D01*
X26474060Y-53914097D01*
X26565423Y-53693527D01*
X26612000Y-53459372D01*
X26612000Y-53220628D01*
X26565423Y-52986473D01*
X26474060Y-52765903D01*
X26341422Y-52567395D01*
X26172605Y-52398578D01*
X25974097Y-52265940D01*
X25753527Y-52174577D01*
X25519372Y-52128000D01*
X25280628Y-52128000D01*
X25046473Y-52174577D01*
X24825903Y-52265940D01*
X24627395Y-52398578D01*
X24605000Y-52420973D01*
X24605000Y-51719027D01*
X24627395Y-51741422D01*
X24825903Y-51874060D01*
X25046473Y-51965423D01*
X25280628Y-52012000D01*
X25519372Y-52012000D01*
X25753527Y-51965423D01*
X25974097Y-51874060D01*
X26172605Y-51741422D01*
X26341422Y-51572605D01*
X26474060Y-51374097D01*
X26565423Y-51153527D01*
X26612000Y-50919372D01*
X26612000Y-50680628D01*
X26565423Y-50446473D01*
X26474060Y-50225903D01*
X26341422Y-50027395D01*
X26172605Y-49858578D01*
X25974097Y-49725940D01*
X25753527Y-49634577D01*
X25519372Y-49588000D01*
X25280628Y-49588000D01*
X25046473Y-49634577D01*
X24825903Y-49725940D01*
X24627395Y-49858578D01*
X24605000Y-49880973D01*
X24605000Y-49179027D01*
X24627395Y-49201422D01*
X24825903Y-49334060D01*
X25046473Y-49425423D01*
X25280628Y-49472000D01*
X25519372Y-49472000D01*
X25753527Y-49425423D01*
X25974097Y-49334060D01*
X26172605Y-49201422D01*
X26341422Y-49032605D01*
X26474060Y-48834097D01*
X26565423Y-48613527D01*
X26612000Y-48379372D01*
X26612000Y-48140628D01*
X26565423Y-47906473D01*
X26474060Y-47685903D01*
X26341422Y-47487395D01*
X26172605Y-47318578D01*
X25974097Y-47185940D01*
X25753527Y-47094577D01*
X25519372Y-47048000D01*
X25280628Y-47048000D01*
X25046473Y-47094577D01*
X24825903Y-47185940D01*
X24627395Y-47318578D01*
X24605000Y-47340973D01*
X24605000Y-46639027D01*
X24627395Y-46661422D01*
X24825903Y-46794060D01*
X25046473Y-46885423D01*
X25280628Y-46932000D01*
X25519372Y-46932000D01*
X25753527Y-46885423D01*
X25974097Y-46794060D01*
X26172605Y-46661422D01*
X26341422Y-46492605D01*
X26474060Y-46294097D01*
X26565423Y-46073527D01*
X26612000Y-45839372D01*
X26612000Y-45600628D01*
X26565423Y-45366473D01*
X26474060Y-45145903D01*
X26341422Y-44947395D01*
X26172605Y-44778578D01*
X25974097Y-44645940D01*
X25753527Y-44554577D01*
X25519372Y-44508000D01*
X25280628Y-44508000D01*
X25046473Y-44554577D01*
X24825903Y-44645940D01*
X24627395Y-44778578D01*
X24605000Y-44800973D01*
X24605000Y-44099027D01*
X24627395Y-44121422D01*
X24825903Y-44254060D01*
X25046473Y-44345423D01*
X25280628Y-44392000D01*
X25519372Y-44392000D01*
X25753527Y-44345423D01*
X25974097Y-44254060D01*
X26172605Y-44121422D01*
X26341422Y-43952605D01*
X26474060Y-43754097D01*
X26565423Y-43533527D01*
X26612000Y-43299372D01*
X26612000Y-43060628D01*
X26565423Y-42826473D01*
X26474060Y-42605903D01*
X26341422Y-42407395D01*
X26172605Y-42238578D01*
X25974097Y-42105940D01*
X25753527Y-42014577D01*
X25519372Y-41968000D01*
X25280628Y-41968000D01*
X25046473Y-42014577D01*
X24825903Y-42105940D01*
X24627395Y-42238578D01*
X24605000Y-42260973D01*
X24605000Y-41559027D01*
X24627395Y-41581422D01*
X24825903Y-41714060D01*
X25046473Y-41805423D01*
X25280628Y-41852000D01*
X25519372Y-41852000D01*
X25753527Y-41805423D01*
X25974097Y-41714060D01*
X26172605Y-41581422D01*
X26341422Y-41412605D01*
X26474060Y-41214097D01*
X26565423Y-40993527D01*
X26612000Y-40759372D01*
X26612000Y-40520628D01*
X26565423Y-40286473D01*
X26474060Y-40065903D01*
X26341422Y-39867395D01*
X26172605Y-39698578D01*
X25974097Y-39565940D01*
X25753527Y-39474577D01*
X25519372Y-39428000D01*
X25280628Y-39428000D01*
X25046473Y-39474577D01*
X24825903Y-39565940D01*
X24627395Y-39698578D01*
X24605000Y-39720973D01*
X24605000Y-39019027D01*
X24627395Y-39041422D01*
X24825903Y-39174060D01*
X25046473Y-39265423D01*
X25280628Y-39312000D01*
X25519372Y-39312000D01*
X25753527Y-39265423D01*
X25974097Y-39174060D01*
X26172605Y-39041422D01*
X26341422Y-38872605D01*
X26474060Y-38674097D01*
X26565423Y-38453527D01*
X26612000Y-38219372D01*
X26612000Y-37980628D01*
X26565423Y-37746473D01*
X26474060Y-37525903D01*
X26341422Y-37327395D01*
X26172605Y-37158578D01*
X25974097Y-37025940D01*
X25753527Y-36934577D01*
X25519372Y-36888000D01*
X25280628Y-36888000D01*
X25046473Y-36934577D01*
X24825903Y-37025940D01*
X24627395Y-37158578D01*
X24605000Y-37180973D01*
X24605000Y-36479027D01*
X24627395Y-36501422D01*
X24825903Y-36634060D01*
X25046473Y-36725423D01*
X25280628Y-36772000D01*
X25519372Y-36772000D01*
X25753527Y-36725423D01*
X25777624Y-36715442D01*
X26935195Y-37873013D01*
X26935201Y-37873018D01*
X31819182Y-42757000D01*
X30126007Y-42757000D01*
X30098999Y-42754340D01*
X30071991Y-42757000D01*
X30071982Y-42757000D01*
X29991181Y-42764958D01*
X29887506Y-42796408D01*
X29791958Y-42847479D01*
X29791956Y-42847480D01*
X29791957Y-42847480D01*
X29729195Y-42898987D01*
X29729190Y-42898992D01*
X29708210Y-42916210D01*
X29690992Y-42937190D01*
X28332191Y-44295992D01*
X28311211Y-44313210D01*
X28293993Y-44334190D01*
X28293987Y-44334196D01*
X28242479Y-44396958D01*
X28191409Y-44492506D01*
X28159959Y-44596182D01*
X28149340Y-44704000D01*
X28152001Y-44731018D01*
X28152000Y-45646629D01*
X28080599Y-45718030D01*
X27993049Y-45849058D01*
X27932743Y-45994649D01*
X27902000Y-46149207D01*
X27902000Y-46306793D01*
X27932743Y-46461351D01*
X27993049Y-46606942D01*
X28080599Y-46737970D01*
X28192030Y-46849401D01*
X28323058Y-46936951D01*
X28451129Y-46990000D01*
X28323058Y-47043049D01*
X28192030Y-47130599D01*
X28080599Y-47242030D01*
X27993049Y-47373058D01*
X27932743Y-47518649D01*
X27902000Y-47673207D01*
X27902000Y-47830793D01*
X27932743Y-47985351D01*
X27993049Y-48130942D01*
X28080599Y-48261970D01*
X28192030Y-48373401D01*
X28323058Y-48460951D01*
X28468649Y-48521257D01*
X28623207Y-48552000D01*
X28780793Y-48552000D01*
X28935351Y-48521257D01*
X29080942Y-48460951D01*
X29211970Y-48373401D01*
X29295371Y-48290000D01*
X36586472Y-48290000D01*
X35057473Y-49819000D01*
X30122371Y-49819000D01*
X30100970Y-49797599D01*
X29969942Y-49710049D01*
X29824351Y-49649743D01*
X29669793Y-49619000D01*
X29512207Y-49619000D01*
X29357649Y-49649743D01*
X29212058Y-49710049D01*
X29081030Y-49797599D01*
X28969599Y-49909030D01*
X28882049Y-50040058D01*
X28821743Y-50185649D01*
X28791000Y-50340207D01*
X28791000Y-50497793D01*
X28821743Y-50652351D01*
X28882049Y-50797942D01*
X28969599Y-50928970D01*
X29081030Y-51040401D01*
X29212058Y-51127951D01*
X29357649Y-51188257D01*
X29512207Y-51219000D01*
X29669793Y-51219000D01*
X29824351Y-51188257D01*
X29969942Y-51127951D01*
X30100970Y-51040401D01*
X30122371Y-51019000D01*
X35276526Y-51019000D01*
X35306000Y-51021903D01*
X35335474Y-51019000D01*
X35423621Y-51010318D01*
X35536721Y-50976010D01*
X35640955Y-50920296D01*
X35732317Y-50845317D01*
X35751113Y-50822414D01*
X37767529Y-48806000D01*
X37797793Y-48806000D01*
X37952351Y-48775257D01*
X38097942Y-48714951D01*
X38228970Y-48627401D01*
X38340401Y-48515970D01*
X38427951Y-48384942D01*
X38488257Y-48239351D01*
X38519000Y-48084793D01*
X38519000Y-48054527D01*
X39163819Y-47409709D01*
X39186717Y-47390917D01*
X39261696Y-47299555D01*
X39317410Y-47195321D01*
X39351718Y-47082221D01*
X39359877Y-46999380D01*
X39363303Y-46964601D01*
X39360400Y-46935127D01*
X39360400Y-46155873D01*
X39363303Y-46126399D01*
X39351718Y-46008779D01*
X39342610Y-45978754D01*
X39317410Y-45895679D01*
X39261696Y-45791445D01*
X39186717Y-45700083D01*
X39163820Y-45681292D01*
X38319000Y-44836473D01*
X38319000Y-43457371D01*
X38340401Y-43435970D01*
X38427951Y-43304942D01*
X38488257Y-43159351D01*
X38519000Y-43004793D01*
X38519000Y-42847207D01*
X38488257Y-42692649D01*
X38427951Y-42547058D01*
X38340401Y-42416030D01*
X38319000Y-42394629D01*
X38319000Y-36351474D01*
X38321903Y-36322000D01*
X38310318Y-36204379D01*
X38276010Y-36091279D01*
X38264620Y-36069970D01*
X38220296Y-35987045D01*
X38145317Y-35895683D01*
X38122420Y-35876892D01*
X37757000Y-35511473D01*
X37757000Y-35481207D01*
X37726257Y-35326649D01*
X37665951Y-35181058D01*
X37578401Y-35050030D01*
X37466970Y-34938599D01*
X37335942Y-34851049D01*
X37190351Y-34790743D01*
X37035793Y-34760000D01*
X36878207Y-34760000D01*
X36723649Y-34790743D01*
X36578058Y-34851049D01*
X36541000Y-34875810D01*
X36541000Y-34313371D01*
X36562401Y-34291970D01*
X36649951Y-34160942D01*
X36710257Y-34015351D01*
X36741000Y-33860793D01*
X36741000Y-33703207D01*
X36710257Y-33548649D01*
X36649951Y-33403058D01*
X36562401Y-33272030D01*
X36450970Y-33160599D01*
X36319942Y-33073049D01*
X36174351Y-33012743D01*
X36019793Y-32982000D01*
X35862207Y-32982000D01*
X35707649Y-33012743D01*
X35562058Y-33073049D01*
X35431030Y-33160599D01*
X35319599Y-33272030D01*
X35232049Y-33403058D01*
X35171743Y-33548649D01*
X35141000Y-33703207D01*
X35141000Y-33860793D01*
X35171743Y-34015351D01*
X35232049Y-34160942D01*
X35319599Y-34291970D01*
X35341000Y-34313371D01*
X35341001Y-40432716D01*
X35338097Y-40462200D01*
X35349682Y-40579820D01*
X35379465Y-40678000D01*
X35383991Y-40692921D01*
X35439705Y-40797155D01*
X35514684Y-40888517D01*
X35537581Y-40907308D01*
X35772800Y-41142528D01*
X35772801Y-45614316D01*
X35769897Y-45643800D01*
X35781482Y-45761420D01*
X35805129Y-45839372D01*
X35815791Y-45874521D01*
X35871505Y-45978755D01*
X35946484Y-46070117D01*
X35969381Y-46088908D01*
X36625968Y-46745496D01*
X36568743Y-46883649D01*
X36538000Y-47038207D01*
X36538000Y-47068472D01*
X36516472Y-47090000D01*
X29151209Y-47090000D01*
X29080942Y-47043049D01*
X28952871Y-46990000D01*
X29080942Y-46936951D01*
X29211970Y-46849401D01*
X29323401Y-46737970D01*
X29410951Y-46606942D01*
X29471257Y-46461351D01*
X29502000Y-46306793D01*
X29502000Y-46149207D01*
X29471257Y-45994649D01*
X29410951Y-45849058D01*
X29323401Y-45718030D01*
X29252000Y-45646629D01*
X29252000Y-44931817D01*
X30326818Y-43857000D01*
X33577192Y-43857000D01*
X33604200Y-43859660D01*
X33631208Y-43857000D01*
X33631218Y-43857000D01*
X33712019Y-43849042D01*
X33815694Y-43817592D01*
X33911242Y-43766521D01*
X33994990Y-43697790D01*
X34012213Y-43676804D01*
X34648818Y-43040200D01*
X34749793Y-43040200D01*
X34904351Y-43009457D01*
X35049942Y-42949151D01*
X35180970Y-42861601D01*
X35292401Y-42750170D01*
X35379951Y-42619142D01*
X35440257Y-42473551D01*
X35471000Y-42318993D01*
X35471000Y-42161407D01*
X35440257Y-42006849D01*
X35379951Y-41861258D01*
X35292401Y-41730230D01*
X35180970Y-41618799D01*
X35049942Y-41531249D01*
X34904351Y-41470943D01*
X34749793Y-41440200D01*
X34592207Y-41440200D01*
X34437649Y-41470943D01*
X34292058Y-41531249D01*
X34161030Y-41618799D01*
X34049599Y-41730230D01*
X33962049Y-41861258D01*
X33936258Y-41923524D01*
X33805342Y-41836049D01*
X33659751Y-41775743D01*
X33505193Y-41745000D01*
X33347607Y-41745000D01*
X33193049Y-41775743D01*
X33047458Y-41836049D01*
X32916430Y-41923599D01*
X32845029Y-41995000D01*
X32612818Y-41995000D01*
X27713018Y-37095201D01*
X27713013Y-37095195D01*
X26555442Y-35937624D01*
X26565423Y-35913527D01*
X26612000Y-35679372D01*
X26612000Y-35440628D01*
X26565423Y-35206473D01*
X26474060Y-34985903D01*
X26341422Y-34787395D01*
X26172605Y-34618578D01*
X25974097Y-34485940D01*
X25753527Y-34394577D01*
X25519372Y-34348000D01*
X25280628Y-34348000D01*
X25046473Y-34394577D01*
X24825903Y-34485940D01*
X24627395Y-34618578D01*
X24605000Y-34640973D01*
X24605000Y-33939027D01*
X24627395Y-33961422D01*
X24825903Y-34094060D01*
X25046473Y-34185423D01*
X25280628Y-34232000D01*
X25519372Y-34232000D01*
X25753527Y-34185423D01*
X25777624Y-34175441D01*
X31458000Y-39855817D01*
X31458000Y-39956793D01*
X31488743Y-40111351D01*
X31549049Y-40256942D01*
X31636599Y-40387970D01*
X31748030Y-40499401D01*
X31879058Y-40586951D01*
X32024649Y-40647257D01*
X32179207Y-40678000D01*
X32336793Y-40678000D01*
X32491351Y-40647257D01*
X32636942Y-40586951D01*
X32767970Y-40499401D01*
X32879401Y-40387970D01*
X32966951Y-40256942D01*
X33027257Y-40111351D01*
X33058000Y-39956793D01*
X33058000Y-39799207D01*
X33027257Y-39644649D01*
X32966951Y-39499058D01*
X32879401Y-39368030D01*
X32767970Y-39256599D01*
X32636942Y-39169049D01*
X32491351Y-39108743D01*
X32336793Y-39078000D01*
X32235817Y-39078000D01*
X26555441Y-33397624D01*
X26565423Y-33373527D01*
X26612000Y-33139372D01*
X26612000Y-32900628D01*
X26565423Y-32666473D01*
X26474060Y-32445903D01*
X26341422Y-32247395D01*
X26172605Y-32078578D01*
X25974097Y-31945940D01*
X25753527Y-31854577D01*
X25519372Y-31808000D01*
X25280628Y-31808000D01*
X25046473Y-31854577D01*
X24825903Y-31945940D01*
X24627395Y-32078578D01*
X24605000Y-32100973D01*
X24605000Y-31399027D01*
X24627395Y-31421422D01*
X24825903Y-31554060D01*
X25046473Y-31645423D01*
X25280628Y-31692000D01*
X25519372Y-31692000D01*
X25753527Y-31645423D01*
X25974097Y-31554060D01*
X26172605Y-31421422D01*
X26341422Y-31252605D01*
X26474060Y-31054097D01*
X26565423Y-30833527D01*
X26612000Y-30599372D01*
X26612000Y-30360628D01*
X26565423Y-30126473D01*
X26474060Y-29905903D01*
X26341422Y-29707395D01*
X26172605Y-29538578D01*
X25974097Y-29405940D01*
X25753527Y-29314577D01*
X25519372Y-29268000D01*
X25280628Y-29268000D01*
X25046473Y-29314577D01*
X24825903Y-29405940D01*
X24627395Y-29538578D01*
X24605000Y-29560973D01*
X24605000Y-28859027D01*
X24627395Y-28881422D01*
X24825903Y-29014060D01*
X25046473Y-29105423D01*
X25280628Y-29152000D01*
X25519372Y-29152000D01*
X25753527Y-29105423D01*
X25974097Y-29014060D01*
X26172605Y-28881422D01*
X26341422Y-28712605D01*
X26474060Y-28514097D01*
X26565423Y-28293527D01*
X26612000Y-28059372D01*
X26612000Y-27893238D01*
X39322480Y-27893238D01*
X39338673Y-28151172D01*
X39404875Y-28400990D01*
X39518543Y-28633093D01*
X39570502Y-28710855D01*
X39801487Y-28771442D01*
X40632929Y-27940000D01*
X39801487Y-27108558D01*
X39570502Y-27169145D01*
X39440666Y-27392605D01*
X39356919Y-27637101D01*
X39322480Y-27893238D01*
X26612000Y-27893238D01*
X26612000Y-27820628D01*
X26565423Y-27586473D01*
X26474060Y-27365903D01*
X26341422Y-27167395D01*
X26172605Y-26998578D01*
X25974097Y-26865940D01*
X25753527Y-26774577D01*
X25519372Y-26728000D01*
X25280628Y-26728000D01*
X25046473Y-26774577D01*
X24825903Y-26865940D01*
X24627395Y-26998578D01*
X24605000Y-27020973D01*
X24605000Y-26610927D01*
X24638000Y-26614177D01*
X26162000Y-26614177D01*
X26250215Y-26605489D01*
X26335041Y-26579757D01*
X26413216Y-26537971D01*
X26481737Y-26481737D01*
X26537971Y-26413216D01*
X26579757Y-26335041D01*
X26605489Y-26250215D01*
X26614177Y-26162000D01*
X26614177Y-24638000D01*
X26610927Y-24605000D01*
X39720973Y-24605000D01*
X39698578Y-24627395D01*
%TA.AperFunction,Conductor*%
D16*
G36*
X39698578Y-24627395D02*
G01*
X39565940Y-24825903D01*
X39474577Y-25046473D01*
X39428000Y-25280628D01*
X39428000Y-25519372D01*
X39474577Y-25753527D01*
X39565940Y-25974097D01*
X39698578Y-26172605D01*
X39867395Y-26341422D01*
X40065903Y-26474060D01*
X40286473Y-26565423D01*
X40520628Y-26612000D01*
X40759372Y-26612000D01*
X40993527Y-26565423D01*
X41214097Y-26474060D01*
X41412605Y-26341422D01*
X41435000Y-26319027D01*
X41435000Y-26962554D01*
X41410855Y-26870502D01*
X41187395Y-26740666D01*
X40942899Y-26656919D01*
X40686762Y-26622480D01*
X40428828Y-26638673D01*
X40179010Y-26704875D01*
X39946907Y-26818543D01*
X39869145Y-26870502D01*
X39808558Y-27101487D01*
X40640000Y-27932929D01*
X40654143Y-27918787D01*
X40661214Y-27925858D01*
X40647071Y-27940000D01*
X40661214Y-27954143D01*
X40654143Y-27961214D01*
X40640000Y-27947071D01*
X39808558Y-28778513D01*
X39869145Y-29009498D01*
X40092605Y-29139334D01*
X40337101Y-29223081D01*
X40593238Y-29257520D01*
X40851172Y-29241327D01*
X41100990Y-29175125D01*
X41333093Y-29061457D01*
X41410855Y-29009498D01*
X41435000Y-28917446D01*
X41435000Y-29560973D01*
X41412605Y-29538578D01*
X41214097Y-29405940D01*
X40993527Y-29314577D01*
X40759372Y-29268000D01*
X40520628Y-29268000D01*
X40286473Y-29314577D01*
X40065903Y-29405940D01*
X39867395Y-29538578D01*
X39698578Y-29707395D01*
X39565940Y-29905903D01*
X39474577Y-30126473D01*
X39428000Y-30360628D01*
X39428000Y-30599372D01*
X39474577Y-30833527D01*
X39565940Y-31054097D01*
X39698578Y-31252605D01*
X39867395Y-31421422D01*
X40065903Y-31554060D01*
X40286473Y-31645423D01*
X40520628Y-31692000D01*
X40759372Y-31692000D01*
X40993527Y-31645423D01*
X41214097Y-31554060D01*
X41412605Y-31421422D01*
X41435000Y-31399027D01*
X41435000Y-32100973D01*
X41412605Y-32078578D01*
X41214097Y-31945940D01*
X40993527Y-31854577D01*
X40759372Y-31808000D01*
X40520628Y-31808000D01*
X40286473Y-31854577D01*
X40065903Y-31945940D01*
X39867395Y-32078578D01*
X39698578Y-32247395D01*
X39565940Y-32445903D01*
X39474577Y-32666473D01*
X39428000Y-32900628D01*
X39428000Y-33139372D01*
X39474577Y-33373527D01*
X39565940Y-33594097D01*
X39698578Y-33792605D01*
X39867395Y-33961422D01*
X40065903Y-34094060D01*
X40286473Y-34185423D01*
X40520628Y-34232000D01*
X40759372Y-34232000D01*
X40993527Y-34185423D01*
X41214097Y-34094060D01*
X41412605Y-33961422D01*
X41435000Y-33939027D01*
X41435000Y-34640973D01*
X41412605Y-34618578D01*
X41214097Y-34485940D01*
X40993527Y-34394577D01*
X40759372Y-34348000D01*
X40520628Y-34348000D01*
X40286473Y-34394577D01*
X40065903Y-34485940D01*
X39867395Y-34618578D01*
X39698578Y-34787395D01*
X39565940Y-34985903D01*
X39474577Y-35206473D01*
X39428000Y-35440628D01*
X39428000Y-35679372D01*
X39474577Y-35913527D01*
X39565940Y-36134097D01*
X39698578Y-36332605D01*
X39867395Y-36501422D01*
X40065903Y-36634060D01*
X40286473Y-36725423D01*
X40520628Y-36772000D01*
X40759372Y-36772000D01*
X40993527Y-36725423D01*
X41214097Y-36634060D01*
X41412605Y-36501422D01*
X41435000Y-36479027D01*
X41435000Y-37180973D01*
X41412605Y-37158578D01*
X41214097Y-37025940D01*
X40993527Y-36934577D01*
X40759372Y-36888000D01*
X40520628Y-36888000D01*
X40286473Y-36934577D01*
X40065903Y-37025940D01*
X39867395Y-37158578D01*
X39698578Y-37327395D01*
X39565940Y-37525903D01*
X39474577Y-37746473D01*
X39428000Y-37980628D01*
X39428000Y-38219372D01*
X39474577Y-38453527D01*
X39565940Y-38674097D01*
X39698578Y-38872605D01*
X39867395Y-39041422D01*
X40065903Y-39174060D01*
X40286473Y-39265423D01*
X40520628Y-39312000D01*
X40759372Y-39312000D01*
X40993527Y-39265423D01*
X41214097Y-39174060D01*
X41412605Y-39041422D01*
X41435000Y-39019027D01*
X41435000Y-39720973D01*
X41412605Y-39698578D01*
X41214097Y-39565940D01*
X40993527Y-39474577D01*
X40759372Y-39428000D01*
X40520628Y-39428000D01*
X40286473Y-39474577D01*
X40065903Y-39565940D01*
X39867395Y-39698578D01*
X39698578Y-39867395D01*
X39565940Y-40065903D01*
X39474577Y-40286473D01*
X39428000Y-40520628D01*
X39428000Y-40759372D01*
X39474577Y-40993527D01*
X39565940Y-41214097D01*
X39698578Y-41412605D01*
X39867395Y-41581422D01*
X40065903Y-41714060D01*
X40286473Y-41805423D01*
X40520628Y-41852000D01*
X40759372Y-41852000D01*
X40993527Y-41805423D01*
X41214097Y-41714060D01*
X41412605Y-41581422D01*
X41435000Y-41559027D01*
X41435000Y-42260973D01*
X41412605Y-42238578D01*
X41214097Y-42105940D01*
X40993527Y-42014577D01*
X40759372Y-41968000D01*
X40520628Y-41968000D01*
X40286473Y-42014577D01*
X40065903Y-42105940D01*
X39867395Y-42238578D01*
X39698578Y-42407395D01*
X39565940Y-42605903D01*
X39474577Y-42826473D01*
X39428000Y-43060628D01*
X39428000Y-43299372D01*
X39474577Y-43533527D01*
X39565940Y-43754097D01*
X39698578Y-43952605D01*
X39867395Y-44121422D01*
X40065903Y-44254060D01*
X40286473Y-44345423D01*
X40520628Y-44392000D01*
X40759372Y-44392000D01*
X40993527Y-44345423D01*
X41214097Y-44254060D01*
X41412605Y-44121422D01*
X41435000Y-44099027D01*
X41435000Y-44800973D01*
X41412605Y-44778578D01*
X41214097Y-44645940D01*
X40993527Y-44554577D01*
X40759372Y-44508000D01*
X40520628Y-44508000D01*
X40286473Y-44554577D01*
X40065903Y-44645940D01*
X39867395Y-44778578D01*
X39698578Y-44947395D01*
X39565940Y-45145903D01*
X39474577Y-45366473D01*
X39428000Y-45600628D01*
X39428000Y-45839372D01*
X39474577Y-46073527D01*
X39565940Y-46294097D01*
X39698578Y-46492605D01*
X39867395Y-46661422D01*
X40065903Y-46794060D01*
X40286473Y-46885423D01*
X40520628Y-46932000D01*
X40759372Y-46932000D01*
X40993527Y-46885423D01*
X41214097Y-46794060D01*
X41412605Y-46661422D01*
X41435001Y-46639026D01*
X41435001Y-47340974D01*
X41412605Y-47318578D01*
X41214097Y-47185940D01*
X40993527Y-47094577D01*
X40759372Y-47048000D01*
X40520628Y-47048000D01*
X40286473Y-47094577D01*
X40065903Y-47185940D01*
X39867395Y-47318578D01*
X39698578Y-47487395D01*
X39565940Y-47685903D01*
X39474577Y-47906473D01*
X39428000Y-48140628D01*
X39428000Y-48379372D01*
X39474577Y-48613527D01*
X39565940Y-48834097D01*
X39698578Y-49032605D01*
X39867395Y-49201422D01*
X40065903Y-49334060D01*
X40286473Y-49425423D01*
X40520628Y-49472000D01*
X40759372Y-49472000D01*
X40993527Y-49425423D01*
X41214097Y-49334060D01*
X41412605Y-49201422D01*
X41435001Y-49179026D01*
X41435001Y-49880974D01*
X41412605Y-49858578D01*
X41214097Y-49725940D01*
X40993527Y-49634577D01*
X40759372Y-49588000D01*
X40520628Y-49588000D01*
X40286473Y-49634577D01*
X40065903Y-49725940D01*
X39867395Y-49858578D01*
X39698578Y-50027395D01*
X39565940Y-50225903D01*
X39474577Y-50446473D01*
X39428000Y-50680628D01*
X39428000Y-50919372D01*
X39474577Y-51153527D01*
X39565940Y-51374097D01*
X39698578Y-51572605D01*
X39867395Y-51741422D01*
X40065903Y-51874060D01*
X40286473Y-51965423D01*
X40520628Y-52012000D01*
X40759372Y-52012000D01*
X40993527Y-51965423D01*
X41214097Y-51874060D01*
X41412605Y-51741422D01*
X41435001Y-51719026D01*
X41435001Y-52420974D01*
X41412605Y-52398578D01*
X41214097Y-52265940D01*
X40993527Y-52174577D01*
X40759372Y-52128000D01*
X40520628Y-52128000D01*
X40286473Y-52174577D01*
X40065903Y-52265940D01*
X39867395Y-52398578D01*
X39698578Y-52567395D01*
X39565940Y-52765903D01*
X39474577Y-52986473D01*
X39428000Y-53220628D01*
X39428000Y-53459372D01*
X39474577Y-53693527D01*
X39565940Y-53914097D01*
X39698578Y-54112605D01*
X39867395Y-54281422D01*
X40065903Y-54414060D01*
X40286473Y-54505423D01*
X40520628Y-54552000D01*
X40759372Y-54552000D01*
X40993527Y-54505423D01*
X41214097Y-54414060D01*
X41412605Y-54281422D01*
X41435001Y-54259026D01*
X41435001Y-54960974D01*
X41412605Y-54938578D01*
X41214097Y-54805940D01*
X40993527Y-54714577D01*
X40759372Y-54668000D01*
X40520628Y-54668000D01*
X40286473Y-54714577D01*
X40065903Y-54805940D01*
X39867395Y-54938578D01*
X39698578Y-55107395D01*
X39565940Y-55305903D01*
X39474577Y-55526473D01*
X39428000Y-55760628D01*
X39428000Y-55999372D01*
X39474577Y-56233527D01*
X39565940Y-56454097D01*
X39698578Y-56652605D01*
X39867395Y-56821422D01*
X40065903Y-56954060D01*
X40286473Y-57045423D01*
X40520628Y-57092000D01*
X40759372Y-57092000D01*
X40993527Y-57045423D01*
X41214097Y-56954060D01*
X41412605Y-56821422D01*
X41435001Y-56799026D01*
X41435001Y-57500974D01*
X41412605Y-57478578D01*
X41214097Y-57345940D01*
X40993527Y-57254577D01*
X40759372Y-57208000D01*
X40520628Y-57208000D01*
X40286473Y-57254577D01*
X40065903Y-57345940D01*
X39867395Y-57478578D01*
X39698578Y-57647395D01*
X39565940Y-57845903D01*
X39474577Y-58066473D01*
X39428000Y-58300628D01*
X39428000Y-58539372D01*
X39474577Y-58773527D01*
X39565940Y-58994097D01*
X39698578Y-59192605D01*
X39867395Y-59361422D01*
X40065903Y-59494060D01*
X40286473Y-59585423D01*
X40520628Y-59632000D01*
X40759372Y-59632000D01*
X40993527Y-59585423D01*
X41214097Y-59494060D01*
X41412605Y-59361422D01*
X41435001Y-59339026D01*
X41435001Y-60040974D01*
X41412605Y-60018578D01*
X41214097Y-59885940D01*
X40993527Y-59794577D01*
X40759372Y-59748000D01*
X40520628Y-59748000D01*
X40286473Y-59794577D01*
X40065903Y-59885940D01*
X39867395Y-60018578D01*
X39698578Y-60187395D01*
X39565940Y-60385903D01*
X39474577Y-60606473D01*
X39428000Y-60840628D01*
X39428000Y-61079372D01*
X39474577Y-61313527D01*
X39565940Y-61534097D01*
X39698578Y-61732605D01*
X39867395Y-61901422D01*
X40065903Y-62034060D01*
X40286473Y-62125423D01*
X40520628Y-62172000D01*
X40759372Y-62172000D01*
X40993527Y-62125423D01*
X41214097Y-62034060D01*
X41412605Y-61901422D01*
X41435001Y-61879026D01*
X41435001Y-62580974D01*
X41412605Y-62558578D01*
X41214097Y-62425940D01*
X40993527Y-62334577D01*
X40759372Y-62288000D01*
X40520628Y-62288000D01*
X40286473Y-62334577D01*
X40065903Y-62425940D01*
X39867395Y-62558578D01*
X39698578Y-62727395D01*
X39565940Y-62925903D01*
X39474577Y-63146473D01*
X39428000Y-63380628D01*
X39428000Y-63619372D01*
X39474577Y-63853527D01*
X39565940Y-64074097D01*
X39698578Y-64272605D01*
X39867395Y-64441422D01*
X40065903Y-64574060D01*
X40286473Y-64665423D01*
X40520628Y-64712000D01*
X40759372Y-64712000D01*
X40993527Y-64665423D01*
X41214097Y-64574060D01*
X41412605Y-64441422D01*
X41435001Y-64419026D01*
X41435001Y-65120974D01*
X41412605Y-65098578D01*
X41214097Y-64965940D01*
X40993527Y-64874577D01*
X40759372Y-64828000D01*
X40520628Y-64828000D01*
X40286473Y-64874577D01*
X40065903Y-64965940D01*
X39867395Y-65098578D01*
X39698578Y-65267395D01*
X39565940Y-65465903D01*
X39474577Y-65686473D01*
X39428000Y-65920628D01*
X39428000Y-66159372D01*
X39474577Y-66393527D01*
X39565940Y-66614097D01*
X39698578Y-66812605D01*
X39720973Y-66835000D01*
X26319027Y-66835000D01*
X26341422Y-66812605D01*
X26474060Y-66614097D01*
X26565423Y-66393527D01*
X26612000Y-66159372D01*
X26612000Y-65920628D01*
X26565423Y-65686473D01*
X26474060Y-65465903D01*
X26341422Y-65267395D01*
X26172605Y-65098578D01*
X25974097Y-64965940D01*
X25753527Y-64874577D01*
X25519372Y-64828000D01*
X25280628Y-64828000D01*
X25046473Y-64874577D01*
X24825903Y-64965940D01*
X24627395Y-65098578D01*
X24605000Y-65120973D01*
X24605000Y-64419027D01*
X24627395Y-64441422D01*
X24825903Y-64574060D01*
X25046473Y-64665423D01*
X25280628Y-64712000D01*
X25519372Y-64712000D01*
X25753527Y-64665423D01*
X25974097Y-64574060D01*
X26172605Y-64441422D01*
X26341422Y-64272605D01*
X26474060Y-64074097D01*
X26565423Y-63853527D01*
X26612000Y-63619372D01*
X26612000Y-63380628D01*
X26565423Y-63146473D01*
X26474060Y-62925903D01*
X26341422Y-62727395D01*
X26172605Y-62558578D01*
X25974097Y-62425940D01*
X25753527Y-62334577D01*
X25519372Y-62288000D01*
X25280628Y-62288000D01*
X25046473Y-62334577D01*
X24825903Y-62425940D01*
X24627395Y-62558578D01*
X24605000Y-62580973D01*
X24605000Y-61879027D01*
X24627395Y-61901422D01*
X24825903Y-62034060D01*
X25046473Y-62125423D01*
X25280628Y-62172000D01*
X25519372Y-62172000D01*
X25753527Y-62125423D01*
X25974097Y-62034060D01*
X26172605Y-61901422D01*
X26341422Y-61732605D01*
X26474060Y-61534097D01*
X26565423Y-61313527D01*
X26612000Y-61079372D01*
X26612000Y-60840628D01*
X26565423Y-60606473D01*
X26474060Y-60385903D01*
X26341422Y-60187395D01*
X26172605Y-60018578D01*
X25974097Y-59885940D01*
X25753527Y-59794577D01*
X25519372Y-59748000D01*
X25280628Y-59748000D01*
X25046473Y-59794577D01*
X24825903Y-59885940D01*
X24627395Y-60018578D01*
X24605000Y-60040973D01*
X24605000Y-59339027D01*
X24627395Y-59361422D01*
X24825903Y-59494060D01*
X25046473Y-59585423D01*
X25280628Y-59632000D01*
X25519372Y-59632000D01*
X25753527Y-59585423D01*
X25974097Y-59494060D01*
X26172605Y-59361422D01*
X26341422Y-59192605D01*
X26474060Y-58994097D01*
X26565423Y-58773527D01*
X26612000Y-58539372D01*
X26612000Y-58300628D01*
X26565423Y-58066473D01*
X26474060Y-57845903D01*
X26341422Y-57647395D01*
X26172605Y-57478578D01*
X25974097Y-57345940D01*
X25753527Y-57254577D01*
X25519372Y-57208000D01*
X25280628Y-57208000D01*
X25046473Y-57254577D01*
X24825903Y-57345940D01*
X24627395Y-57478578D01*
X24605000Y-57500973D01*
X24605000Y-56799027D01*
X24627395Y-56821422D01*
X24825903Y-56954060D01*
X25046473Y-57045423D01*
X25280628Y-57092000D01*
X25519372Y-57092000D01*
X25753527Y-57045423D01*
X25974097Y-56954060D01*
X26172605Y-56821422D01*
X26341422Y-56652605D01*
X26474060Y-56454097D01*
X26565423Y-56233527D01*
X26612000Y-55999372D01*
X26612000Y-55760628D01*
X26565423Y-55526473D01*
X26474060Y-55305903D01*
X26341422Y-55107395D01*
X26172605Y-54938578D01*
X25974097Y-54805940D01*
X25753527Y-54714577D01*
X25519372Y-54668000D01*
X25280628Y-54668000D01*
X25046473Y-54714577D01*
X24825903Y-54805940D01*
X24627395Y-54938578D01*
X24605000Y-54960973D01*
X24605000Y-54259027D01*
X24627395Y-54281422D01*
X24825903Y-54414060D01*
X25046473Y-54505423D01*
X25280628Y-54552000D01*
X25519372Y-54552000D01*
X25753527Y-54505423D01*
X25974097Y-54414060D01*
X26172605Y-54281422D01*
X26341422Y-54112605D01*
X26474060Y-53914097D01*
X26565423Y-53693527D01*
X26612000Y-53459372D01*
X26612000Y-53220628D01*
X26565423Y-52986473D01*
X26474060Y-52765903D01*
X26341422Y-52567395D01*
X26172605Y-52398578D01*
X25974097Y-52265940D01*
X25753527Y-52174577D01*
X25519372Y-52128000D01*
X25280628Y-52128000D01*
X25046473Y-52174577D01*
X24825903Y-52265940D01*
X24627395Y-52398578D01*
X24605000Y-52420973D01*
X24605000Y-51719027D01*
X24627395Y-51741422D01*
X24825903Y-51874060D01*
X25046473Y-51965423D01*
X25280628Y-52012000D01*
X25519372Y-52012000D01*
X25753527Y-51965423D01*
X25974097Y-51874060D01*
X26172605Y-51741422D01*
X26341422Y-51572605D01*
X26474060Y-51374097D01*
X26565423Y-51153527D01*
X26612000Y-50919372D01*
X26612000Y-50680628D01*
X26565423Y-50446473D01*
X26474060Y-50225903D01*
X26341422Y-50027395D01*
X26172605Y-49858578D01*
X25974097Y-49725940D01*
X25753527Y-49634577D01*
X25519372Y-49588000D01*
X25280628Y-49588000D01*
X25046473Y-49634577D01*
X24825903Y-49725940D01*
X24627395Y-49858578D01*
X24605000Y-49880973D01*
X24605000Y-49179027D01*
X24627395Y-49201422D01*
X24825903Y-49334060D01*
X25046473Y-49425423D01*
X25280628Y-49472000D01*
X25519372Y-49472000D01*
X25753527Y-49425423D01*
X25974097Y-49334060D01*
X26172605Y-49201422D01*
X26341422Y-49032605D01*
X26474060Y-48834097D01*
X26565423Y-48613527D01*
X26612000Y-48379372D01*
X26612000Y-48140628D01*
X26565423Y-47906473D01*
X26474060Y-47685903D01*
X26341422Y-47487395D01*
X26172605Y-47318578D01*
X25974097Y-47185940D01*
X25753527Y-47094577D01*
X25519372Y-47048000D01*
X25280628Y-47048000D01*
X25046473Y-47094577D01*
X24825903Y-47185940D01*
X24627395Y-47318578D01*
X24605000Y-47340973D01*
X24605000Y-46639027D01*
X24627395Y-46661422D01*
X24825903Y-46794060D01*
X25046473Y-46885423D01*
X25280628Y-46932000D01*
X25519372Y-46932000D01*
X25753527Y-46885423D01*
X25974097Y-46794060D01*
X26172605Y-46661422D01*
X26341422Y-46492605D01*
X26474060Y-46294097D01*
X26565423Y-46073527D01*
X26612000Y-45839372D01*
X26612000Y-45600628D01*
X26565423Y-45366473D01*
X26474060Y-45145903D01*
X26341422Y-44947395D01*
X26172605Y-44778578D01*
X25974097Y-44645940D01*
X25753527Y-44554577D01*
X25519372Y-44508000D01*
X25280628Y-44508000D01*
X25046473Y-44554577D01*
X24825903Y-44645940D01*
X24627395Y-44778578D01*
X24605000Y-44800973D01*
X24605000Y-44099027D01*
X24627395Y-44121422D01*
X24825903Y-44254060D01*
X25046473Y-44345423D01*
X25280628Y-44392000D01*
X25519372Y-44392000D01*
X25753527Y-44345423D01*
X25974097Y-44254060D01*
X26172605Y-44121422D01*
X26341422Y-43952605D01*
X26474060Y-43754097D01*
X26565423Y-43533527D01*
X26612000Y-43299372D01*
X26612000Y-43060628D01*
X26565423Y-42826473D01*
X26474060Y-42605903D01*
X26341422Y-42407395D01*
X26172605Y-42238578D01*
X25974097Y-42105940D01*
X25753527Y-42014577D01*
X25519372Y-41968000D01*
X25280628Y-41968000D01*
X25046473Y-42014577D01*
X24825903Y-42105940D01*
X24627395Y-42238578D01*
X24605000Y-42260973D01*
X24605000Y-41559027D01*
X24627395Y-41581422D01*
X24825903Y-41714060D01*
X25046473Y-41805423D01*
X25280628Y-41852000D01*
X25519372Y-41852000D01*
X25753527Y-41805423D01*
X25974097Y-41714060D01*
X26172605Y-41581422D01*
X26341422Y-41412605D01*
X26474060Y-41214097D01*
X26565423Y-40993527D01*
X26612000Y-40759372D01*
X26612000Y-40520628D01*
X26565423Y-40286473D01*
X26474060Y-40065903D01*
X26341422Y-39867395D01*
X26172605Y-39698578D01*
X25974097Y-39565940D01*
X25753527Y-39474577D01*
X25519372Y-39428000D01*
X25280628Y-39428000D01*
X25046473Y-39474577D01*
X24825903Y-39565940D01*
X24627395Y-39698578D01*
X24605000Y-39720973D01*
X24605000Y-39019027D01*
X24627395Y-39041422D01*
X24825903Y-39174060D01*
X25046473Y-39265423D01*
X25280628Y-39312000D01*
X25519372Y-39312000D01*
X25753527Y-39265423D01*
X25974097Y-39174060D01*
X26172605Y-39041422D01*
X26341422Y-38872605D01*
X26474060Y-38674097D01*
X26565423Y-38453527D01*
X26612000Y-38219372D01*
X26612000Y-37980628D01*
X26565423Y-37746473D01*
X26474060Y-37525903D01*
X26341422Y-37327395D01*
X26172605Y-37158578D01*
X25974097Y-37025940D01*
X25753527Y-36934577D01*
X25519372Y-36888000D01*
X25280628Y-36888000D01*
X25046473Y-36934577D01*
X24825903Y-37025940D01*
X24627395Y-37158578D01*
X24605000Y-37180973D01*
X24605000Y-36479027D01*
X24627395Y-36501422D01*
X24825903Y-36634060D01*
X25046473Y-36725423D01*
X25280628Y-36772000D01*
X25519372Y-36772000D01*
X25753527Y-36725423D01*
X25777624Y-36715442D01*
X26935195Y-37873013D01*
X26935201Y-37873018D01*
X31819182Y-42757000D01*
X30126007Y-42757000D01*
X30098999Y-42754340D01*
X30071991Y-42757000D01*
X30071982Y-42757000D01*
X29991181Y-42764958D01*
X29887506Y-42796408D01*
X29791958Y-42847479D01*
X29791956Y-42847480D01*
X29791957Y-42847480D01*
X29729195Y-42898987D01*
X29729190Y-42898992D01*
X29708210Y-42916210D01*
X29690992Y-42937190D01*
X28332191Y-44295992D01*
X28311211Y-44313210D01*
X28293993Y-44334190D01*
X28293987Y-44334196D01*
X28242479Y-44396958D01*
X28191409Y-44492506D01*
X28159959Y-44596182D01*
X28149340Y-44704000D01*
X28152001Y-44731018D01*
X28152000Y-45646629D01*
X28080599Y-45718030D01*
X27993049Y-45849058D01*
X27932743Y-45994649D01*
X27902000Y-46149207D01*
X27902000Y-46306793D01*
X27932743Y-46461351D01*
X27993049Y-46606942D01*
X28080599Y-46737970D01*
X28192030Y-46849401D01*
X28323058Y-46936951D01*
X28451129Y-46990000D01*
X28323058Y-47043049D01*
X28192030Y-47130599D01*
X28080599Y-47242030D01*
X27993049Y-47373058D01*
X27932743Y-47518649D01*
X27902000Y-47673207D01*
X27902000Y-47830793D01*
X27932743Y-47985351D01*
X27993049Y-48130942D01*
X28080599Y-48261970D01*
X28192030Y-48373401D01*
X28323058Y-48460951D01*
X28468649Y-48521257D01*
X28623207Y-48552000D01*
X28780793Y-48552000D01*
X28935351Y-48521257D01*
X29080942Y-48460951D01*
X29211970Y-48373401D01*
X29295371Y-48290000D01*
X36586472Y-48290000D01*
X35057473Y-49819000D01*
X30122371Y-49819000D01*
X30100970Y-49797599D01*
X29969942Y-49710049D01*
X29824351Y-49649743D01*
X29669793Y-49619000D01*
X29512207Y-49619000D01*
X29357649Y-49649743D01*
X29212058Y-49710049D01*
X29081030Y-49797599D01*
X28969599Y-49909030D01*
X28882049Y-50040058D01*
X28821743Y-50185649D01*
X28791000Y-50340207D01*
X28791000Y-50497793D01*
X28821743Y-50652351D01*
X28882049Y-50797942D01*
X28969599Y-50928970D01*
X29081030Y-51040401D01*
X29212058Y-51127951D01*
X29357649Y-51188257D01*
X29512207Y-51219000D01*
X29669793Y-51219000D01*
X29824351Y-51188257D01*
X29969942Y-51127951D01*
X30100970Y-51040401D01*
X30122371Y-51019000D01*
X35276526Y-51019000D01*
X35306000Y-51021903D01*
X35335474Y-51019000D01*
X35423621Y-51010318D01*
X35536721Y-50976010D01*
X35640955Y-50920296D01*
X35732317Y-50845317D01*
X35751113Y-50822414D01*
X37767529Y-48806000D01*
X37797793Y-48806000D01*
X37952351Y-48775257D01*
X38097942Y-48714951D01*
X38228970Y-48627401D01*
X38340401Y-48515970D01*
X38427951Y-48384942D01*
X38488257Y-48239351D01*
X38519000Y-48084793D01*
X38519000Y-48054527D01*
X39163819Y-47409709D01*
X39186717Y-47390917D01*
X39261696Y-47299555D01*
X39317410Y-47195321D01*
X39351718Y-47082221D01*
X39359877Y-46999380D01*
X39363303Y-46964601D01*
X39360400Y-46935127D01*
X39360400Y-46155873D01*
X39363303Y-46126399D01*
X39351718Y-46008779D01*
X39342610Y-45978754D01*
X39317410Y-45895679D01*
X39261696Y-45791445D01*
X39186717Y-45700083D01*
X39163820Y-45681292D01*
X38319000Y-44836473D01*
X38319000Y-43457371D01*
X38340401Y-43435970D01*
X38427951Y-43304942D01*
X38488257Y-43159351D01*
X38519000Y-43004793D01*
X38519000Y-42847207D01*
X38488257Y-42692649D01*
X38427951Y-42547058D01*
X38340401Y-42416030D01*
X38319000Y-42394629D01*
X38319000Y-36351474D01*
X38321903Y-36322000D01*
X38310318Y-36204379D01*
X38276010Y-36091279D01*
X38264620Y-36069970D01*
X38220296Y-35987045D01*
X38145317Y-35895683D01*
X38122420Y-35876892D01*
X37757000Y-35511473D01*
X37757000Y-35481207D01*
X37726257Y-35326649D01*
X37665951Y-35181058D01*
X37578401Y-35050030D01*
X37466970Y-34938599D01*
X37335942Y-34851049D01*
X37190351Y-34790743D01*
X37035793Y-34760000D01*
X36878207Y-34760000D01*
X36723649Y-34790743D01*
X36578058Y-34851049D01*
X36541000Y-34875810D01*
X36541000Y-34313371D01*
X36562401Y-34291970D01*
X36649951Y-34160942D01*
X36710257Y-34015351D01*
X36741000Y-33860793D01*
X36741000Y-33703207D01*
X36710257Y-33548649D01*
X36649951Y-33403058D01*
X36562401Y-33272030D01*
X36450970Y-33160599D01*
X36319942Y-33073049D01*
X36174351Y-33012743D01*
X36019793Y-32982000D01*
X35862207Y-32982000D01*
X35707649Y-33012743D01*
X35562058Y-33073049D01*
X35431030Y-33160599D01*
X35319599Y-33272030D01*
X35232049Y-33403058D01*
X35171743Y-33548649D01*
X35141000Y-33703207D01*
X35141000Y-33860793D01*
X35171743Y-34015351D01*
X35232049Y-34160942D01*
X35319599Y-34291970D01*
X35341000Y-34313371D01*
X35341001Y-40432716D01*
X35338097Y-40462200D01*
X35349682Y-40579820D01*
X35379465Y-40678000D01*
X35383991Y-40692921D01*
X35439705Y-40797155D01*
X35514684Y-40888517D01*
X35537581Y-40907308D01*
X35772800Y-41142528D01*
X35772801Y-45614316D01*
X35769897Y-45643800D01*
X35781482Y-45761420D01*
X35805129Y-45839372D01*
X35815791Y-45874521D01*
X35871505Y-45978755D01*
X35946484Y-46070117D01*
X35969381Y-46088908D01*
X36625968Y-46745496D01*
X36568743Y-46883649D01*
X36538000Y-47038207D01*
X36538000Y-47068472D01*
X36516472Y-47090000D01*
X29151209Y-47090000D01*
X29080942Y-47043049D01*
X28952871Y-46990000D01*
X29080942Y-46936951D01*
X29211970Y-46849401D01*
X29323401Y-46737970D01*
X29410951Y-46606942D01*
X29471257Y-46461351D01*
X29502000Y-46306793D01*
X29502000Y-46149207D01*
X29471257Y-45994649D01*
X29410951Y-45849058D01*
X29323401Y-45718030D01*
X29252000Y-45646629D01*
X29252000Y-44931817D01*
X30326818Y-43857000D01*
X33577192Y-43857000D01*
X33604200Y-43859660D01*
X33631208Y-43857000D01*
X33631218Y-43857000D01*
X33712019Y-43849042D01*
X33815694Y-43817592D01*
X33911242Y-43766521D01*
X33994990Y-43697790D01*
X34012213Y-43676804D01*
X34648818Y-43040200D01*
X34749793Y-43040200D01*
X34904351Y-43009457D01*
X35049942Y-42949151D01*
X35180970Y-42861601D01*
X35292401Y-42750170D01*
X35379951Y-42619142D01*
X35440257Y-42473551D01*
X35471000Y-42318993D01*
X35471000Y-42161407D01*
X35440257Y-42006849D01*
X35379951Y-41861258D01*
X35292401Y-41730230D01*
X35180970Y-41618799D01*
X35049942Y-41531249D01*
X34904351Y-41470943D01*
X34749793Y-41440200D01*
X34592207Y-41440200D01*
X34437649Y-41470943D01*
X34292058Y-41531249D01*
X34161030Y-41618799D01*
X34049599Y-41730230D01*
X33962049Y-41861258D01*
X33936258Y-41923524D01*
X33805342Y-41836049D01*
X33659751Y-41775743D01*
X33505193Y-41745000D01*
X33347607Y-41745000D01*
X33193049Y-41775743D01*
X33047458Y-41836049D01*
X32916430Y-41923599D01*
X32845029Y-41995000D01*
X32612818Y-41995000D01*
X27713018Y-37095201D01*
X27713013Y-37095195D01*
X26555442Y-35937624D01*
X26565423Y-35913527D01*
X26612000Y-35679372D01*
X26612000Y-35440628D01*
X26565423Y-35206473D01*
X26474060Y-34985903D01*
X26341422Y-34787395D01*
X26172605Y-34618578D01*
X25974097Y-34485940D01*
X25753527Y-34394577D01*
X25519372Y-34348000D01*
X25280628Y-34348000D01*
X25046473Y-34394577D01*
X24825903Y-34485940D01*
X24627395Y-34618578D01*
X24605000Y-34640973D01*
X24605000Y-33939027D01*
X24627395Y-33961422D01*
X24825903Y-34094060D01*
X25046473Y-34185423D01*
X25280628Y-34232000D01*
X25519372Y-34232000D01*
X25753527Y-34185423D01*
X25777624Y-34175441D01*
X31458000Y-39855817D01*
X31458000Y-39956793D01*
X31488743Y-40111351D01*
X31549049Y-40256942D01*
X31636599Y-40387970D01*
X31748030Y-40499401D01*
X31879058Y-40586951D01*
X32024649Y-40647257D01*
X32179207Y-40678000D01*
X32336793Y-40678000D01*
X32491351Y-40647257D01*
X32636942Y-40586951D01*
X32767970Y-40499401D01*
X32879401Y-40387970D01*
X32966951Y-40256942D01*
X33027257Y-40111351D01*
X33058000Y-39956793D01*
X33058000Y-39799207D01*
X33027257Y-39644649D01*
X32966951Y-39499058D01*
X32879401Y-39368030D01*
X32767970Y-39256599D01*
X32636942Y-39169049D01*
X32491351Y-39108743D01*
X32336793Y-39078000D01*
X32235817Y-39078000D01*
X26555441Y-33397624D01*
X26565423Y-33373527D01*
X26612000Y-33139372D01*
X26612000Y-32900628D01*
X26565423Y-32666473D01*
X26474060Y-32445903D01*
X26341422Y-32247395D01*
X26172605Y-32078578D01*
X25974097Y-31945940D01*
X25753527Y-31854577D01*
X25519372Y-31808000D01*
X25280628Y-31808000D01*
X25046473Y-31854577D01*
X24825903Y-31945940D01*
X24627395Y-32078578D01*
X24605000Y-32100973D01*
X24605000Y-31399027D01*
X24627395Y-31421422D01*
X24825903Y-31554060D01*
X25046473Y-31645423D01*
X25280628Y-31692000D01*
X25519372Y-31692000D01*
X25753527Y-31645423D01*
X25974097Y-31554060D01*
X26172605Y-31421422D01*
X26341422Y-31252605D01*
X26474060Y-31054097D01*
X26565423Y-30833527D01*
X26612000Y-30599372D01*
X26612000Y-30360628D01*
X26565423Y-30126473D01*
X26474060Y-29905903D01*
X26341422Y-29707395D01*
X26172605Y-29538578D01*
X25974097Y-29405940D01*
X25753527Y-29314577D01*
X25519372Y-29268000D01*
X25280628Y-29268000D01*
X25046473Y-29314577D01*
X24825903Y-29405940D01*
X24627395Y-29538578D01*
X24605000Y-29560973D01*
X24605000Y-28859027D01*
X24627395Y-28881422D01*
X24825903Y-29014060D01*
X25046473Y-29105423D01*
X25280628Y-29152000D01*
X25519372Y-29152000D01*
X25753527Y-29105423D01*
X25974097Y-29014060D01*
X26172605Y-28881422D01*
X26341422Y-28712605D01*
X26474060Y-28514097D01*
X26565423Y-28293527D01*
X26612000Y-28059372D01*
X26612000Y-27893238D01*
X39322480Y-27893238D01*
X39338673Y-28151172D01*
X39404875Y-28400990D01*
X39518543Y-28633093D01*
X39570502Y-28710855D01*
X39801487Y-28771442D01*
X40632929Y-27940000D01*
X39801487Y-27108558D01*
X39570502Y-27169145D01*
X39440666Y-27392605D01*
X39356919Y-27637101D01*
X39322480Y-27893238D01*
X26612000Y-27893238D01*
X26612000Y-27820628D01*
X26565423Y-27586473D01*
X26474060Y-27365903D01*
X26341422Y-27167395D01*
X26172605Y-26998578D01*
X25974097Y-26865940D01*
X25753527Y-26774577D01*
X25519372Y-26728000D01*
X25280628Y-26728000D01*
X25046473Y-26774577D01*
X24825903Y-26865940D01*
X24627395Y-26998578D01*
X24605000Y-27020973D01*
X24605000Y-26610927D01*
X24638000Y-26614177D01*
X26162000Y-26614177D01*
X26250215Y-26605489D01*
X26335041Y-26579757D01*
X26413216Y-26537971D01*
X26481737Y-26481737D01*
X26537971Y-26413216D01*
X26579757Y-26335041D01*
X26605489Y-26250215D01*
X26614177Y-26162000D01*
X26614177Y-24638000D01*
X26610927Y-24605000D01*
X39720973Y-24605000D01*
X39698578Y-24627395D01*
G37*
%TD.AperFunction*%
%TD*%
M02*
