M48
; DRILL file {KiCad 5.1.8} date Fri Nov 13 13:51:09 2020
; FORMAT={-:-/ absolute / metric / decimal}
; #@! TF.CreationDate,2020-11-13T13:51:09+03:00
; #@! TF.GenerationSoftware,Kicad,Pcbnew,5.1.8
FMAT,2
METRIC
T1C0.300
T2C0.762
%
G90
G05
T1
X28.702Y-46.228
X28.702Y-47.752
X29.591Y-50.419
X31.623Y-32.385
X32.258Y-39.878
X33.274Y-38.227
X33.401Y-26.035
X33.426Y-42.545
X33.528Y-29.591
X34.671Y-42.24
X35.941Y-33.782
X36.957Y-35.56
X36.957Y-40.132
X37.338Y-47.117
X37.719Y-42.926
X37.719Y-48.006
X38.036Y-46.418
X31.62Y-45.59
X31.62Y-46.99
X31.62Y-48.39
X33.02Y-45.59
X33.02Y-46.99
X33.02Y-48.39
X34.42Y-45.59
X34.42Y-46.99
X34.42Y-48.39
T2
X25.4Y-25.4
X25.4Y-27.94
X25.4Y-30.48
X25.4Y-33.02
X25.4Y-35.56
X25.4Y-38.1
X25.4Y-40.64
X25.4Y-43.18
X25.4Y-45.72
X25.4Y-48.26
X25.4Y-50.8
X25.4Y-53.34
X25.4Y-55.88
X25.4Y-58.42
X25.4Y-60.96
X25.4Y-63.5
X25.4Y-66.04
X40.64Y-25.4
X40.64Y-27.94
X40.64Y-30.48
X40.64Y-33.02
X40.64Y-35.56
X40.64Y-38.1
X40.64Y-40.64
X40.64Y-43.18
X40.64Y-45.72
X40.64Y-48.26
X40.64Y-50.8
X40.64Y-53.34
X40.64Y-55.88
X40.64Y-58.42
X40.64Y-60.96
X40.64Y-63.5
X40.64Y-66.04
T0
M30
