%TF.GenerationSoftware,KiCad,Pcbnew,5.1.8*%
%TF.CreationDate,2020-11-13T13:51:11+03:00*%
%TF.ProjectId,leech,6c656563-682e-46b6-9963-61645f706362,rev?*%
%TF.SameCoordinates,Original*%
%TF.FileFunction,Copper,L2,Bot*%
%TF.FilePolarity,Positive*%
%FSLAX46Y46*%
G04 Gerber Fmt 4.6, Leading zero omitted, Abs format (unit mm)*
G04 Created by KiCad (PCBNEW 5.1.8) date 2020-11-13 13:51:11*
%MOMM*%
%LPD*%
G01*
G04 APERTURE LIST*
%TA.AperFunction,NonConductor*%
%ADD10C,0.200000*%
%TD*%
%TA.AperFunction,SMDPad,CuDef*%
%ADD11R,5.400000X5.400000*%
%TD*%
%TA.AperFunction,ComponentPad*%
%ADD12C,0.700000*%
%TD*%
%TA.AperFunction,SMDPad,CuDef*%
%ADD13R,0.250000X0.700000*%
%TD*%
%TA.AperFunction,SMDPad,CuDef*%
%ADD14R,0.700000X0.250000*%
%TD*%
%TA.AperFunction,ComponentPad*%
%ADD15C,1.524000*%
%TD*%
%TA.AperFunction,ComponentPad*%
%ADD16R,1.524000X1.524000*%
%TD*%
%TA.AperFunction,SMDPad,CuDef*%
%ADD17R,0.650000X1.060000*%
%TD*%
%TA.AperFunction,SMDPad,CuDef*%
%ADD18R,1.060000X0.650000*%
%TD*%
%TA.AperFunction,SMDPad,CuDef*%
%ADD19C,1.000000*%
%TD*%
%TA.AperFunction,ViaPad*%
%ADD20C,0.700000*%
%TD*%
%TA.AperFunction,Conductor*%
%ADD21C,0.300000*%
%TD*%
%TA.AperFunction,Conductor*%
%ADD22C,0.200000*%
%TD*%
G04 APERTURE END LIST*
D10*
X32816857Y-61811142D02*
X32759714Y-61696857D01*
X32645428Y-61639714D01*
X31616857Y-61639714D01*
X32759714Y-62725428D02*
X32816857Y-62611142D01*
X32816857Y-62382571D01*
X32759714Y-62268285D01*
X32645428Y-62211142D01*
X32188285Y-62211142D01*
X32074000Y-62268285D01*
X32016857Y-62382571D01*
X32016857Y-62611142D01*
X32074000Y-62725428D01*
X32188285Y-62782571D01*
X32302571Y-62782571D01*
X32416857Y-62211142D01*
X32759714Y-63754000D02*
X32816857Y-63639714D01*
X32816857Y-63411142D01*
X32759714Y-63296857D01*
X32645428Y-63239714D01*
X32188285Y-63239714D01*
X32074000Y-63296857D01*
X32016857Y-63411142D01*
X32016857Y-63639714D01*
X32074000Y-63754000D01*
X32188285Y-63811142D01*
X32302571Y-63811142D01*
X32416857Y-63239714D01*
X32759714Y-64839714D02*
X32816857Y-64725428D01*
X32816857Y-64496857D01*
X32759714Y-64382571D01*
X32702571Y-64325428D01*
X32588285Y-64268285D01*
X32245428Y-64268285D01*
X32131142Y-64325428D01*
X32074000Y-64382571D01*
X32016857Y-64496857D01*
X32016857Y-64725428D01*
X32074000Y-64839714D01*
X32816857Y-65354000D02*
X31616857Y-65354000D01*
X32816857Y-65868285D02*
X32188285Y-65868285D01*
X32074000Y-65811142D01*
X32016857Y-65696857D01*
X32016857Y-65525428D01*
X32074000Y-65411142D01*
X32131142Y-65354000D01*
X34016857Y-62039714D02*
X34816857Y-62325428D01*
X34016857Y-62611142D01*
X34816857Y-63696857D02*
X34816857Y-63011142D01*
X34816857Y-63354000D02*
X33616857Y-63354000D01*
X33788285Y-63239714D01*
X33902571Y-63125428D01*
X33959714Y-63011142D01*
X34702571Y-64211142D02*
X34759714Y-64268285D01*
X34816857Y-64211142D01*
X34759714Y-64154000D01*
X34702571Y-64211142D01*
X34816857Y-64211142D01*
X33731142Y-64725428D02*
X33674000Y-64782571D01*
X33616857Y-64896857D01*
X33616857Y-65182571D01*
X33674000Y-65296857D01*
X33731142Y-65354000D01*
X33845428Y-65411142D01*
X33959714Y-65411142D01*
X34131142Y-65354000D01*
X34816857Y-64668285D01*
X34816857Y-65411142D01*
D11*
%TO.P,U1,EP*%
%TO.N,GND*%
X33020000Y-46990000D03*
D12*
X34420000Y-45590000D03*
X34420000Y-46990000D03*
X34420000Y-48390000D03*
X33020000Y-45590000D03*
X33020000Y-46990000D03*
X33020000Y-48390000D03*
X31620000Y-45590000D03*
X31620000Y-46990000D03*
X31620000Y-48390000D03*
D13*
%TO.P,U1,48*%
%TO.N,/IO48*%
X30270000Y-50390000D03*
%TO.P,U1,47*%
%TO.N,/IO47*%
X30770000Y-50390000D03*
%TO.P,U1,46*%
%TO.N,/IO46*%
X31270000Y-50390000D03*
%TO.P,U1,45*%
%TO.N,/IO45*%
X31770000Y-50390000D03*
%TO.P,U1,44*%
%TO.N,/IO44*%
X32270000Y-50390000D03*
%TO.P,U1,43*%
%TO.N,/IO43*%
X32770000Y-50390000D03*
%TO.P,U1,42*%
%TO.N,/IO42*%
X33270000Y-50390000D03*
%TO.P,U1,41*%
%TO.N,Net-(U1-Pad41)*%
X33770000Y-50390000D03*
%TO.P,U1,40*%
%TO.N,Net-(U1-Pad40)*%
X34270000Y-50390000D03*
%TO.P,U1,39*%
%TO.N,Net-(U1-Pad39)*%
X34770000Y-50390000D03*
%TO.P,U1,38*%
%TO.N,/IO38*%
X35270000Y-50390000D03*
%TO.P,U1,37*%
%TO.N,/IO37*%
X35770000Y-50390000D03*
D14*
%TO.P,U1,36*%
%TO.N,/IO36*%
X36420000Y-49740000D03*
%TO.P,U1,35*%
%TO.N,/IO35*%
X36420000Y-49240000D03*
%TO.P,U1,34*%
%TO.N,/IO34*%
X36420000Y-48740000D03*
%TO.P,U1,33*%
%TO.N,/ICE_3V3*%
X36420000Y-48240000D03*
%TO.P,U1,32*%
%TO.N,Net-(U1-Pad32)*%
X36420000Y-47740000D03*
%TO.P,U1,31*%
%TO.N,Net-(U1-Pad31)*%
X36420000Y-47240000D03*
%TO.P,U1,30*%
%TO.N,/ICE_1V2*%
X36420000Y-46740000D03*
%TO.P,U1,29*%
%TO.N,/ICE_VCCPLL*%
X36420000Y-46240000D03*
%TO.P,U1,28*%
%TO.N,/IO28*%
X36420000Y-45740000D03*
%TO.P,U1,27*%
%TO.N,/IO27*%
X36420000Y-45240000D03*
%TO.P,U1,26*%
%TO.N,/IO26*%
X36420000Y-44740000D03*
%TO.P,U1,25*%
%TO.N,/IO25*%
X36420000Y-44240000D03*
D13*
%TO.P,U1,24*%
%TO.N,/ICE_3V3*%
X35770000Y-43590000D03*
%TO.P,U1,23*%
%TO.N,Net-(U1-Pad23)*%
X35270000Y-43590000D03*
%TO.P,U1,22*%
%TO.N,/ICE_3V3*%
X34770000Y-43590000D03*
%TO.P,U1,21*%
%TO.N,Net-(U1-Pad21)*%
X34270000Y-43590000D03*
%TO.P,U1,20*%
%TO.N,/CLK*%
X33770000Y-43590000D03*
%TO.P,U1,19*%
%TO.N,Net-(U1-Pad19)*%
X33270000Y-43590000D03*
%TO.P,U1,18*%
%TO.N,/IO18*%
X32770000Y-43590000D03*
%TO.P,U1,17*%
%TO.N,/ICE_SI*%
X32270000Y-43590000D03*
%TO.P,U1,16*%
%TO.N,/ICE_SS*%
X31770000Y-43590000D03*
%TO.P,U1,15*%
%TO.N,/ICE_SCK*%
X31270000Y-43590000D03*
%TO.P,U1,14*%
%TO.N,/ICE_SO*%
X30770000Y-43590000D03*
%TO.P,U1,13*%
%TO.N,/IO13*%
X30270000Y-43590000D03*
D14*
%TO.P,U1,12*%
%TO.N,/IO12*%
X29620000Y-44240000D03*
%TO.P,U1,11*%
%TO.N,/IO11*%
X29620000Y-44740000D03*
%TO.P,U1,10*%
%TO.N,/IO10*%
X29620000Y-45240000D03*
%TO.P,U1,9*%
%TO.N,Net-(U1-Pad9)*%
X29620000Y-45740000D03*
%TO.P,U1,8*%
%TO.N,/CRESET*%
X29620000Y-46240000D03*
%TO.P,U1,7*%
%TO.N,Net-(U1-Pad7)*%
X29620000Y-46740000D03*
%TO.P,U1,6*%
%TO.N,/IO6*%
X29620000Y-47240000D03*
%TO.P,U1,5*%
%TO.N,/ICE_1V2*%
X29620000Y-47740000D03*
%TO.P,U1,4*%
%TO.N,Net-(U1-Pad4)*%
X29620000Y-48240000D03*
%TO.P,U1,3*%
%TO.N,/IO3*%
X29620000Y-48740000D03*
%TO.P,U1,2*%
%TO.N,/IO2*%
X29620000Y-49240000D03*
%TO.P,U1,1*%
%TO.N,/ICE_3V3*%
X29620000Y-49740000D03*
%TD*%
D15*
%TO.P,CN1,40*%
%TO.N,Net-(CN1-Pad40)*%
X40640000Y-25400000D03*
%TO.P,CN1,39*%
%TO.N,GND*%
X40640000Y-27940000D03*
%TO.P,CN1,38*%
%TO.N,/PILL_3V3*%
X40640000Y-30480000D03*
%TO.P,CN1,37*%
%TO.N,/IO18*%
X40640000Y-33020000D03*
%TO.P,CN1,36*%
%TO.N,/CRESET*%
X40640000Y-35560000D03*
%TO.P,CN1,35*%
%TO.N,/IO25*%
X40640000Y-38100000D03*
%TO.P,CN1,34*%
%TO.N,/IO26*%
X40640000Y-40640000D03*
%TO.P,CN1,33*%
%TO.N,/IO27*%
X40640000Y-43180000D03*
%TO.P,CN1,32*%
%TO.N,/IO28*%
X40640000Y-45720000D03*
%TO.P,CN1,31*%
%TO.N,/IO34*%
X40640000Y-48260000D03*
%TO.P,CN1,30*%
%TO.N,/IO35*%
X40640000Y-50800000D03*
%TO.P,CN1,29*%
%TO.N,/IO36*%
X40640000Y-53340000D03*
%TO.P,CN1,28*%
%TO.N,/IO37*%
X40640000Y-55880000D03*
%TO.P,CN1,27*%
%TO.N,/IO38*%
X40640000Y-58420000D03*
%TO.P,CN1,26*%
%TO.N,/IO42*%
X40640000Y-60960000D03*
%TO.P,CN1,25*%
%TO.N,/IO43*%
X40640000Y-63500000D03*
%TO.P,CN1,24*%
%TO.N,Net-(CN1-Pad24)*%
X40640000Y-66040000D03*
%TO.P,CN1,17*%
%TO.N,/IO44*%
X25400000Y-66040000D03*
%TO.P,CN1,16*%
%TO.N,/IO45*%
X25400000Y-63500000D03*
%TO.P,CN1,15*%
%TO.N,/IO46*%
X25400000Y-60960000D03*
%TO.P,CN1,14*%
%TO.N,/IO47*%
X25400000Y-58420000D03*
%TO.P,CN1,13*%
%TO.N,/IO48*%
X25400000Y-55880000D03*
%TO.P,CN1,12*%
%TO.N,/IO2*%
X25400000Y-53340000D03*
%TO.P,CN1,11*%
%TO.N,/IO3*%
X25400000Y-50800000D03*
%TO.P,CN1,10*%
%TO.N,/IO6*%
X25400000Y-48260000D03*
%TO.P,CN1,9*%
%TO.N,/IO10*%
X25400000Y-45720000D03*
%TO.P,CN1,8*%
%TO.N,/IO11*%
X25400000Y-43180000D03*
%TO.P,CN1,7*%
%TO.N,/IO12*%
X25400000Y-40640000D03*
%TO.P,CN1,6*%
%TO.N,/IO13*%
X25400000Y-38100000D03*
%TO.P,CN1,5*%
%TO.N,/CLK*%
X25400000Y-35560000D03*
%TO.P,CN1,4*%
%TO.N,/ICE_SI*%
X25400000Y-33020000D03*
%TO.P,CN1,3*%
%TO.N,/ICE_SO*%
X25400000Y-30480000D03*
%TO.P,CN1,2*%
%TO.N,/ICE_SCK*%
X25400000Y-27940000D03*
D16*
%TO.P,CN1,1*%
%TO.N,/ICE_SS*%
X25400000Y-25400000D03*
%TD*%
%TO.P,R2,2*%
%TO.N,/ICE_1V2*%
%TA.AperFunction,SMDPad,CuDef*%
G36*
G01*
X36391002Y-35160000D02*
X35490998Y-35160000D01*
G75*
G02*
X35241000Y-34910002I0J249998D01*
G01*
X35241000Y-34384998D01*
G75*
G02*
X35490998Y-34135000I249998J0D01*
G01*
X36391002Y-34135000D01*
G75*
G02*
X36641000Y-34384998I0J-249998D01*
G01*
X36641000Y-34910002D01*
G75*
G02*
X36391002Y-35160000I-249998J0D01*
G01*
G37*
%TD.AperFunction*%
%TO.P,R2,1*%
%TO.N,/ICE_VCCPLL*%
%TA.AperFunction,SMDPad,CuDef*%
G36*
G01*
X36391002Y-36985000D02*
X35490998Y-36985000D01*
G75*
G02*
X35241000Y-36735002I0J249998D01*
G01*
X35241000Y-36209998D01*
G75*
G02*
X35490998Y-35960000I249998J0D01*
G01*
X36391002Y-35960000D01*
G75*
G02*
X36641000Y-36209998I0J-249998D01*
G01*
X36641000Y-36735002D01*
G75*
G02*
X36391002Y-36985000I-249998J0D01*
G01*
G37*
%TD.AperFunction*%
%TD*%
%TO.P,R1,2*%
%TO.N,Net-(C1-Pad2)*%
%TA.AperFunction,SMDPad,CuDef*%
G36*
G01*
X37026002Y-27540000D02*
X36125998Y-27540000D01*
G75*
G02*
X35876000Y-27290002I0J249998D01*
G01*
X35876000Y-26764998D01*
G75*
G02*
X36125998Y-26515000I249998J0D01*
G01*
X37026002Y-26515000D01*
G75*
G02*
X37276000Y-26764998I0J-249998D01*
G01*
X37276000Y-27290002D01*
G75*
G02*
X37026002Y-27540000I-249998J0D01*
G01*
G37*
%TD.AperFunction*%
%TO.P,R1,1*%
%TO.N,/PILL_3V3*%
%TA.AperFunction,SMDPad,CuDef*%
G36*
G01*
X37026002Y-29365000D02*
X36125998Y-29365000D01*
G75*
G02*
X35876000Y-29115002I0J249998D01*
G01*
X35876000Y-28589998D01*
G75*
G02*
X36125998Y-28340000I249998J0D01*
G01*
X37026002Y-28340000D01*
G75*
G02*
X37276000Y-28589998I0J-249998D01*
G01*
X37276000Y-29115002D01*
G75*
G02*
X37026002Y-29365000I-249998J0D01*
G01*
G37*
%TD.AperFunction*%
%TD*%
%TO.P,C6,2*%
%TO.N,GND*%
%TA.AperFunction,SMDPad,CuDef*%
G36*
G01*
X34602000Y-39657000D02*
X34602000Y-40607000D01*
G75*
G02*
X34352000Y-40857000I-250000J0D01*
G01*
X33852000Y-40857000D01*
G75*
G02*
X33602000Y-40607000I0J250000D01*
G01*
X33602000Y-39657000D01*
G75*
G02*
X33852000Y-39407000I250000J0D01*
G01*
X34352000Y-39407000D01*
G75*
G02*
X34602000Y-39657000I0J-250000D01*
G01*
G37*
%TD.AperFunction*%
%TO.P,C6,1*%
%TO.N,/ICE_VCCPLL*%
%TA.AperFunction,SMDPad,CuDef*%
G36*
G01*
X36502000Y-39657000D02*
X36502000Y-40607000D01*
G75*
G02*
X36252000Y-40857000I-250000J0D01*
G01*
X35752000Y-40857000D01*
G75*
G02*
X35502000Y-40607000I0J250000D01*
G01*
X35502000Y-39657000D01*
G75*
G02*
X35752000Y-39407000I250000J0D01*
G01*
X36252000Y-39407000D01*
G75*
G02*
X36502000Y-39657000I0J-250000D01*
G01*
G37*
%TD.AperFunction*%
%TD*%
%TO.P,C5,2*%
%TO.N,GND*%
%TA.AperFunction,SMDPad,CuDef*%
G36*
G01*
X34602000Y-37752000D02*
X34602000Y-38702000D01*
G75*
G02*
X34352000Y-38952000I-250000J0D01*
G01*
X33852000Y-38952000D01*
G75*
G02*
X33602000Y-38702000I0J250000D01*
G01*
X33602000Y-37752000D01*
G75*
G02*
X33852000Y-37502000I250000J0D01*
G01*
X34352000Y-37502000D01*
G75*
G02*
X34602000Y-37752000I0J-250000D01*
G01*
G37*
%TD.AperFunction*%
%TO.P,C5,1*%
%TO.N,/ICE_VCCPLL*%
%TA.AperFunction,SMDPad,CuDef*%
G36*
G01*
X36502000Y-37752000D02*
X36502000Y-38702000D01*
G75*
G02*
X36252000Y-38952000I-250000J0D01*
G01*
X35752000Y-38952000D01*
G75*
G02*
X35502000Y-38702000I0J250000D01*
G01*
X35502000Y-37752000D01*
G75*
G02*
X35752000Y-37502000I250000J0D01*
G01*
X36252000Y-37502000D01*
G75*
G02*
X36502000Y-37752000I0J-250000D01*
G01*
G37*
%TD.AperFunction*%
%TD*%
%TO.P,C4,2*%
%TO.N,GND*%
%TA.AperFunction,SMDPad,CuDef*%
G36*
G01*
X31082000Y-25585000D02*
X30132000Y-25585000D01*
G75*
G02*
X29882000Y-25335000I0J250000D01*
G01*
X29882000Y-24835000D01*
G75*
G02*
X30132000Y-24585000I250000J0D01*
G01*
X31082000Y-24585000D01*
G75*
G02*
X31332000Y-24835000I0J-250000D01*
G01*
X31332000Y-25335000D01*
G75*
G02*
X31082000Y-25585000I-250000J0D01*
G01*
G37*
%TD.AperFunction*%
%TO.P,C4,1*%
%TO.N,/ICE_3V3*%
%TA.AperFunction,SMDPad,CuDef*%
G36*
G01*
X31082000Y-27485000D02*
X30132000Y-27485000D01*
G75*
G02*
X29882000Y-27235000I0J250000D01*
G01*
X29882000Y-26735000D01*
G75*
G02*
X30132000Y-26485000I250000J0D01*
G01*
X31082000Y-26485000D01*
G75*
G02*
X31332000Y-26735000I0J-250000D01*
G01*
X31332000Y-27235000D01*
G75*
G02*
X31082000Y-27485000I-250000J0D01*
G01*
G37*
%TD.AperFunction*%
%TD*%
%TO.P,C3,2*%
%TO.N,GND*%
%TA.AperFunction,SMDPad,CuDef*%
G36*
G01*
X33078000Y-31910000D02*
X33078000Y-32860000D01*
G75*
G02*
X32828000Y-33110000I-250000J0D01*
G01*
X32328000Y-33110000D01*
G75*
G02*
X32078000Y-32860000I0J250000D01*
G01*
X32078000Y-31910000D01*
G75*
G02*
X32328000Y-31660000I250000J0D01*
G01*
X32828000Y-31660000D01*
G75*
G02*
X33078000Y-31910000I0J-250000D01*
G01*
G37*
%TD.AperFunction*%
%TO.P,C3,1*%
%TO.N,/ICE_1V2*%
%TA.AperFunction,SMDPad,CuDef*%
G36*
G01*
X34978000Y-31910000D02*
X34978000Y-32860000D01*
G75*
G02*
X34728000Y-33110000I-250000J0D01*
G01*
X34228000Y-33110000D01*
G75*
G02*
X33978000Y-32860000I0J250000D01*
G01*
X33978000Y-31910000D01*
G75*
G02*
X34228000Y-31660000I250000J0D01*
G01*
X34728000Y-31660000D01*
G75*
G02*
X34978000Y-31910000I0J-250000D01*
G01*
G37*
%TD.AperFunction*%
%TD*%
%TO.P,C2,2*%
%TO.N,GND*%
%TA.AperFunction,SMDPad,CuDef*%
G36*
G01*
X38956000Y-27490000D02*
X38006000Y-27490000D01*
G75*
G02*
X37756000Y-27240000I0J250000D01*
G01*
X37756000Y-26740000D01*
G75*
G02*
X38006000Y-26490000I250000J0D01*
G01*
X38956000Y-26490000D01*
G75*
G02*
X39206000Y-26740000I0J-250000D01*
G01*
X39206000Y-27240000D01*
G75*
G02*
X38956000Y-27490000I-250000J0D01*
G01*
G37*
%TD.AperFunction*%
%TO.P,C2,1*%
%TO.N,/PILL_3V3*%
%TA.AperFunction,SMDPad,CuDef*%
G36*
G01*
X38956000Y-29390000D02*
X38006000Y-29390000D01*
G75*
G02*
X37756000Y-29140000I0J250000D01*
G01*
X37756000Y-28640000D01*
G75*
G02*
X38006000Y-28390000I250000J0D01*
G01*
X38956000Y-28390000D01*
G75*
G02*
X39206000Y-28640000I0J-250000D01*
G01*
X39206000Y-29140000D01*
G75*
G02*
X38956000Y-29390000I-250000J0D01*
G01*
G37*
%TD.AperFunction*%
%TD*%
%TO.P,C1,2*%
%TO.N,Net-(C1-Pad2)*%
%TA.AperFunction,SMDPad,CuDef*%
G36*
G01*
X37142000Y-24671000D02*
X37142000Y-25621000D01*
G75*
G02*
X36892000Y-25871000I-250000J0D01*
G01*
X36392000Y-25871000D01*
G75*
G02*
X36142000Y-25621000I0J250000D01*
G01*
X36142000Y-24671000D01*
G75*
G02*
X36392000Y-24421000I250000J0D01*
G01*
X36892000Y-24421000D01*
G75*
G02*
X37142000Y-24671000I0J-250000D01*
G01*
G37*
%TD.AperFunction*%
%TO.P,C1,1*%
%TO.N,GND*%
%TA.AperFunction,SMDPad,CuDef*%
G36*
G01*
X39042000Y-24671000D02*
X39042000Y-25621000D01*
G75*
G02*
X38792000Y-25871000I-250000J0D01*
G01*
X38292000Y-25871000D01*
G75*
G02*
X38042000Y-25621000I0J250000D01*
G01*
X38042000Y-24671000D01*
G75*
G02*
X38292000Y-24421000I250000J0D01*
G01*
X38792000Y-24421000D01*
G75*
G02*
X39042000Y-24671000I0J-250000D01*
G01*
G37*
%TD.AperFunction*%
%TD*%
D17*
%TO.P,U3,5*%
%TO.N,/ICE_1V2*%
X32578000Y-30818000D03*
%TO.P,U3,4*%
X34478000Y-30818000D03*
%TO.P,U3,3*%
%TO.N,/PILL_3V3*%
X34478000Y-28618000D03*
%TO.P,U3,2*%
%TO.N,GND*%
X33528000Y-28618000D03*
%TO.P,U3,1*%
%TO.N,/PILL_3V3*%
X32578000Y-28618000D03*
%TD*%
D18*
%TO.P,U2,5*%
%TO.N,/PILL_3V3*%
X34628000Y-26985000D03*
%TO.P,U2,4*%
%TO.N,Net-(C1-Pad2)*%
X34628000Y-25085000D03*
%TO.P,U2,3*%
%TO.N,Net-(U2-Pad3)*%
X32428000Y-25085000D03*
%TO.P,U2,2*%
%TO.N,GND*%
X32428000Y-26035000D03*
%TO.P,U2,1*%
%TO.N,/ICE_3V3*%
X32428000Y-26985000D03*
%TD*%
D19*
%TO.P,TP3,1*%
%TO.N,/ICE_1V2*%
X35941000Y-32385000D03*
%TD*%
%TO.P,TP2,1*%
%TO.N,/ICE_3V3*%
X30607000Y-28702000D03*
%TD*%
%TO.P,TP1,1*%
%TO.N,/PILL_3V3*%
X38481000Y-30480000D03*
%TD*%
D20*
%TO.N,GND*%
X31623000Y-32385000D03*
X33274000Y-38227000D03*
X33528000Y-29591000D03*
X33401000Y-26035000D03*
%TO.N,/ICE_1V2*%
X37338000Y-47117000D03*
X35941000Y-33782000D03*
X28702000Y-47752000D03*
%TO.N,/ICE_VCCPLL*%
X36957000Y-40132000D03*
X38036500Y-46418500D03*
%TO.N,/ICE_3V3*%
X29591000Y-50419000D03*
X37719000Y-48006000D03*
X37719000Y-42926000D03*
X36957000Y-35560000D03*
%TO.N,/CRESET*%
X34671000Y-42240200D03*
X28702000Y-46228000D03*
%TO.N,/CLK*%
X33426400Y-42545000D03*
%TO.N,/ICE_SI*%
X32258000Y-39878000D03*
%TD*%
D21*
%TO.N,GND*%
X39431000Y-27940000D02*
X38481000Y-26990000D01*
X40640000Y-27940000D02*
X39431000Y-27940000D01*
X38481000Y-25207000D02*
X38542000Y-25146000D01*
X38481000Y-26990000D02*
X38481000Y-25207000D01*
X31557000Y-26035000D02*
X30607000Y-25085000D01*
X32428000Y-26035000D02*
X31557000Y-26035000D01*
X32578000Y-32385000D02*
X31623000Y-32385000D01*
X34102000Y-40132000D02*
X34102000Y-38227000D01*
X34102000Y-38227000D02*
X33274000Y-38227000D01*
X33528000Y-29591000D02*
X33528000Y-28618000D01*
X33401000Y-26035000D02*
X32428000Y-26035000D01*
%TO.N,/PILL_3V3*%
X40640000Y-30480000D02*
X38481000Y-30480000D01*
X38481000Y-30480000D02*
X38481000Y-28890000D01*
X38481000Y-28890000D02*
X36642000Y-28890000D01*
X36642000Y-28890000D02*
X35875000Y-28890000D01*
X34750000Y-28890000D02*
X34478000Y-28618000D01*
X35875000Y-28890000D02*
X34750000Y-28890000D01*
X34478000Y-27135000D02*
X34628000Y-26985000D01*
X34478000Y-27747000D02*
X34478000Y-27135000D01*
X34478000Y-28618000D02*
X34478000Y-27747000D01*
X32893000Y-27686000D02*
X34417000Y-27686000D01*
X34417000Y-27686000D02*
X34478000Y-27747000D01*
X32578000Y-28001000D02*
X32893000Y-27686000D01*
X32578000Y-28618000D02*
X32578000Y-28001000D01*
%TO.N,/ICE_1V2*%
X34478000Y-30818000D02*
X32578000Y-30818000D01*
X36961000Y-46740000D02*
X36420000Y-46740000D01*
X37338000Y-47117000D02*
X36961000Y-46740000D01*
X34478000Y-30818000D02*
X34478000Y-32385000D01*
X34478000Y-32385000D02*
X35941000Y-32385000D01*
X35941000Y-33716500D02*
X35941000Y-32385000D01*
X35941000Y-33782000D02*
X35941000Y-33716500D01*
X35941000Y-33782000D02*
X35941000Y-34647500D01*
X28714000Y-47740000D02*
X29620000Y-47740000D01*
X28702000Y-47752000D02*
X28714000Y-47740000D01*
%TO.N,/ICE_VCCPLL*%
X35941000Y-38166000D02*
X36002000Y-38227000D01*
X35941000Y-36641500D02*
X35941000Y-38166000D01*
X36002000Y-40132000D02*
X36002000Y-38227000D01*
X36002000Y-40132000D02*
X36957000Y-40132000D01*
X37858000Y-46240000D02*
X36420000Y-46240000D01*
X38036500Y-46418500D02*
X37858000Y-46240000D01*
%TO.N,/ICE_3V3*%
X32428000Y-26985000D02*
X30607000Y-26985000D01*
X30607000Y-26985000D02*
X30607000Y-28702000D01*
X29620000Y-50390000D02*
X29591000Y-50419000D01*
X29620000Y-49740000D02*
X29620000Y-50390000D01*
X37485000Y-48240000D02*
X36420000Y-48240000D01*
X37719000Y-48006000D02*
X37485000Y-48240000D01*
X35770000Y-43077999D02*
X35770000Y-43590000D01*
X35582000Y-42889999D02*
X35770000Y-43077999D01*
X37682999Y-42889999D02*
X37719000Y-42926000D01*
X35582000Y-42889999D02*
X37682999Y-42889999D01*
X30607000Y-30226000D02*
X30607000Y-28702000D01*
X30607000Y-32893000D02*
X30607000Y-30226000D01*
X33274000Y-35560000D02*
X30607000Y-32893000D01*
X36957000Y-35560000D02*
X33274000Y-35560000D01*
X34961001Y-42889999D02*
X35582000Y-42889999D01*
X34770000Y-43081000D02*
X34961001Y-42889999D01*
X34770000Y-43590000D02*
X34770000Y-43081000D01*
D22*
%TO.N,/CRESET*%
X28714000Y-46240000D02*
X29620000Y-46240000D01*
X28702000Y-46228000D02*
X28714000Y-46240000D01*
X39306500Y-36893500D02*
X40640000Y-35560000D01*
X38354000Y-37846000D02*
X39306500Y-36893500D01*
X38354000Y-41275000D02*
X38354000Y-37846000D01*
X37388800Y-42240200D02*
X38354000Y-41275000D01*
X34671000Y-42240200D02*
X37388800Y-42240200D01*
%TO.N,/CLK*%
X33770000Y-42888600D02*
X33770000Y-43552500D01*
X33426400Y-42545000D02*
X33770000Y-42888600D01*
%TO.N,/IO2*%
X29620000Y-49240000D02*
X28230000Y-49240000D01*
X28230000Y-49240000D02*
X26670000Y-50800000D01*
X26670000Y-50800000D02*
X26670000Y-52070000D01*
X26670000Y-52070000D02*
X25400000Y-53340000D01*
%TO.N,/IO3*%
X27460000Y-48740000D02*
X29620000Y-48740000D01*
X25400000Y-50800000D02*
X27460000Y-48740000D01*
%TO.N,/IO10*%
X26416000Y-45720000D02*
X25400000Y-45720000D01*
X26896000Y-45240000D02*
X26416000Y-45720000D01*
X29620000Y-45240000D02*
X26896000Y-45240000D01*
%TO.N,/IO11*%
X26960000Y-44740000D02*
X25400000Y-43180000D01*
X29620000Y-44740000D02*
X26960000Y-44740000D01*
%TO.N,/ICE_SO*%
X27432000Y-32512000D02*
X25400000Y-30480000D01*
X30770000Y-42581000D02*
X27432000Y-39243000D01*
X27432000Y-39243000D02*
X27432000Y-32512000D01*
X30770000Y-43552500D02*
X30770000Y-42581000D01*
%TO.N,/ICE_SCK*%
X28321000Y-30861000D02*
X25400000Y-27940000D01*
X28321000Y-39243000D02*
X28321000Y-30861000D01*
X31270000Y-42192000D02*
X28321000Y-39243000D01*
X31270000Y-43552500D02*
X31270000Y-42192000D01*
%TO.N,/ICE_SI*%
X32270000Y-41033000D02*
X32270000Y-43552500D01*
X32270000Y-39890000D02*
X32270000Y-41033000D01*
X32258000Y-39878000D02*
X32270000Y-39890000D01*
%TO.N,/ICE_SS*%
X29210000Y-29210000D02*
X25400000Y-25400000D01*
X29210000Y-39116000D02*
X29210000Y-29210000D01*
X31770000Y-41676000D02*
X29210000Y-39116000D01*
X31770000Y-43552500D02*
X31770000Y-41676000D01*
%TO.N,/IO6*%
X26352500Y-47307500D02*
X25400000Y-48260000D01*
X26670000Y-46990000D02*
X26352500Y-47307500D01*
X28956000Y-46990000D02*
X26670000Y-46990000D01*
X29206000Y-47240000D02*
X28956000Y-46990000D01*
X29620000Y-47240000D02*
X29206000Y-47240000D01*
%TO.N,/IO13*%
X27813000Y-40513000D02*
X25400000Y-38100000D01*
X30270000Y-42970000D02*
X27813000Y-40513000D01*
X30270000Y-43552500D02*
X30270000Y-42970000D01*
%TO.N,/IO12*%
X27813000Y-43053000D02*
X25400000Y-40640000D01*
X29000000Y-44240000D02*
X27813000Y-43053000D01*
X29620000Y-44240000D02*
X29000000Y-44240000D01*
%TO.N,/IO18*%
X37846000Y-35814000D02*
X40640000Y-33020000D01*
X37846000Y-40957500D02*
X37846000Y-35814000D01*
X37249100Y-41554400D02*
X37846000Y-40957500D01*
X33375600Y-41554400D02*
X37249100Y-41554400D01*
X32770000Y-42160000D02*
X33375600Y-41554400D01*
X32770000Y-43590000D02*
X32770000Y-42160000D01*
%TO.N,/IO48*%
X30270000Y-51010000D02*
X25400000Y-55880000D01*
X30270000Y-50390000D02*
X30270000Y-51010000D01*
%TO.N,/IO47*%
X30770000Y-53050000D02*
X25400000Y-58420000D01*
X30770000Y-50390000D02*
X30770000Y-53050000D01*
%TO.N,/IO46*%
X31270000Y-55090000D02*
X25400000Y-60960000D01*
X31270000Y-50390000D02*
X31270000Y-55090000D01*
%TO.N,/IO45*%
X31770000Y-57130000D02*
X25400000Y-63500000D01*
X31770000Y-50390000D02*
X31770000Y-57130000D01*
%TO.N,/IO44*%
X32270000Y-59170000D02*
X25400000Y-66040000D01*
X32270000Y-50390000D02*
X32270000Y-59170000D01*
%TO.N,/IO43*%
X37084000Y-59944000D02*
X40640000Y-63500000D01*
X32770000Y-55630000D02*
X37084000Y-59944000D01*
X32770000Y-50390000D02*
X32770000Y-55630000D01*
%TO.N,/IO42*%
X37973000Y-58293000D02*
X40640000Y-60960000D01*
X33270000Y-53590000D02*
X37973000Y-58293000D01*
X33270000Y-50390000D02*
X33270000Y-53590000D01*
%TO.N,/IO38*%
X38989000Y-56769000D02*
X40640000Y-58420000D01*
X35270000Y-53050000D02*
X38989000Y-56769000D01*
X35270000Y-50390000D02*
X35270000Y-53050000D01*
%TO.N,/IO37*%
X37465000Y-52705000D02*
X40640000Y-55880000D01*
X35770000Y-51010000D02*
X37465000Y-52705000D01*
X35770000Y-50390000D02*
X35770000Y-51010000D01*
%TO.N,/IO36*%
X36420000Y-49740000D02*
X37040000Y-49740000D01*
X37040000Y-49740000D02*
X38100000Y-50800000D01*
X38100000Y-50800000D02*
X40640000Y-53340000D01*
%TO.N,/IO34*%
X36420000Y-48740000D02*
X36985000Y-48740000D01*
X36985000Y-48740000D02*
X37310000Y-48740000D01*
X39314000Y-48260000D02*
X40640000Y-48260000D01*
X36985000Y-48740000D02*
X38834000Y-48740000D01*
X38834000Y-48740000D02*
X39314000Y-48260000D01*
%TO.N,/IO28*%
X40620000Y-45740000D02*
X40640000Y-45720000D01*
X36420000Y-45740000D02*
X40620000Y-45740000D01*
%TO.N,/IO27*%
X38580000Y-45240000D02*
X40640000Y-43180000D01*
X36420000Y-45240000D02*
X38580000Y-45240000D01*
%TO.N,/IO26*%
X39370000Y-41910000D02*
X40640000Y-40640000D01*
X39370000Y-43243500D02*
X39370000Y-41910000D01*
X37873500Y-44740000D02*
X39370000Y-43243500D01*
X36420000Y-44740000D02*
X37873500Y-44740000D01*
%TO.N,/IO25*%
X38862000Y-39878000D02*
X40640000Y-38100000D01*
X38862000Y-42926000D02*
X38862000Y-39878000D01*
X37548000Y-44240000D02*
X38862000Y-42926000D01*
X36420000Y-44240000D02*
X37548000Y-44240000D01*
%TO.N,Net-(C1-Pad2)*%
X34628000Y-25085000D02*
X36581000Y-25085000D01*
X36642000Y-26961500D02*
X36576000Y-27027500D01*
X36642000Y-25146000D02*
X36642000Y-26961500D01*
%TO.N,/IO35*%
X39243000Y-50800000D02*
X40640000Y-50800000D01*
X37683000Y-49240000D02*
X39243000Y-50800000D01*
X36420000Y-49240000D02*
X37683000Y-49240000D01*
%TD*%
M02*
